<mxfile host="app.diagrams.net" modified="2023-09-25T15:42:32.930Z" agent="Mozilla/5.0 (Windows NT 10.0; Win64; x64) AppleWebKit/537.36 (KHTML, like Gecko) Chrome/117.0.0.0 Safari/537.36" etag="-COczHyyFaUFdJ3CKYkl" version="21.8.2" type="github">
  <diagram id="moab_QOuEcnYYGaLpviC" name="Page-1">
    <mxGraphModel dx="607" dy="750" grid="1" gridSize="10" guides="1" tooltips="1" connect="0" arrows="1" fold="1" page="1" pageScale="1" pageWidth="827" pageHeight="1169" math="0" shadow="0">
      <root>
        <mxCell id="0" />
        <mxCell id="1" parent="0" />
        <mxCell id="79gRq2DrtrsoFmL8w3pO-127" value="" style="rounded=0;whiteSpace=wrap;html=1;" parent="1" vertex="1">
          <mxGeometry x="2760" y="240" width="1020" height="560" as="geometry" />
        </mxCell>
        <mxCell id="79gRq2DrtrsoFmL8w3pO-1" value="Admin" style="shape=umlActor;verticalLabelPosition=bottom;verticalAlign=top;html=1;outlineConnect=0;" parent="1" vertex="1">
          <mxGeometry x="3265" y="150" width="30" height="60" as="geometry" />
        </mxCell>
        <mxCell id="79gRq2DrtrsoFmL8w3pO-2" value="Nhân viên&lt;br&gt;Quản lý nhân sự&lt;br&gt;" style="shape=umlActor;verticalLabelPosition=bottom;verticalAlign=top;html=1;outlineConnect=0;" parent="1" vertex="1">
          <mxGeometry x="2640" y="430" width="30" height="60" as="geometry" />
        </mxCell>
        <mxCell id="79gRq2DrtrsoFmL8w3pO-3" value="Nhân viên kế toán" style="shape=umlActor;verticalLabelPosition=bottom;verticalAlign=top;html=1;outlineConnect=0;" parent="1" vertex="1">
          <mxGeometry x="2640" y="680" width="30" height="60" as="geometry" />
        </mxCell>
        <mxCell id="79gRq2DrtrsoFmL8w3pO-4" value="Nhân viên chấm công" style="shape=umlActor;verticalLabelPosition=bottom;verticalAlign=top;html=1;outlineConnect=0;" parent="1" vertex="1">
          <mxGeometry x="3265" y="815" width="30" height="60" as="geometry" />
        </mxCell>
        <mxCell id="79gRq2DrtrsoFmL8w3pO-5" value="Nhân viên&lt;br&gt;Quản lý hợp đồng&lt;br&gt;" style="shape=umlActor;verticalLabelPosition=bottom;verticalAlign=top;html=1;outlineConnect=0;" parent="1" vertex="1">
          <mxGeometry x="3900" y="325" width="30" height="60" as="geometry" />
        </mxCell>
        <mxCell id="79gRq2DrtrsoFmL8w3pO-6" value="Nhân viên Quản lý quy trình&amp;nbsp;&lt;br&gt;sản xuất sản phẩm&lt;br&gt;" style="shape=umlActor;verticalLabelPosition=bottom;verticalAlign=top;html=1;outlineConnect=0;" parent="1" vertex="1">
          <mxGeometry x="3900" y="625" width="30" height="60" as="geometry" />
        </mxCell>
        <mxCell id="79gRq2DrtrsoFmL8w3pO-7" value="Quản lý tài khoản" style="ellipse;whiteSpace=wrap;html=1;fillColor=#f5f5f5;fontColor=#333333;strokeColor=#666666;" parent="1" vertex="1">
          <mxGeometry x="3200" y="335" width="160" height="40" as="geometry" />
        </mxCell>
        <mxCell id="79gRq2DrtrsoFmL8w3pO-10" value="Đánh giá nhân viên" style="ellipse;whiteSpace=wrap;html=1;fillColor=#f5f5f5;fontColor=#333333;strokeColor=#666666;" parent="1" vertex="1">
          <mxGeometry x="2865" y="490" width="160" height="40" as="geometry" />
        </mxCell>
        <mxCell id="79gRq2DrtrsoFmL8w3pO-11" value="Quản lý lương nhân&lt;br&gt;viên" style="ellipse;whiteSpace=wrap;html=1;fillColor=#f5f5f5;fontColor=#333333;strokeColor=#666666;" parent="1" vertex="1">
          <mxGeometry x="2865" y="685" width="160" height="40" as="geometry" />
        </mxCell>
        <mxCell id="79gRq2DrtrsoFmL8w3pO-12" value="Chấm công nhân viên" style="ellipse;whiteSpace=wrap;html=1;fillColor=#f5f5f5;fontColor=#333333;strokeColor=#666666;" parent="1" vertex="1">
          <mxGeometry x="3200" y="630" width="160" height="40" as="geometry" />
        </mxCell>
        <mxCell id="79gRq2DrtrsoFmL8w3pO-13" value="Quản lý sản phẩm" style="ellipse;whiteSpace=wrap;html=1;fillColor=#f5f5f5;fontColor=#333333;strokeColor=#666666;" parent="1" vertex="1">
          <mxGeometry x="3550" y="530" width="160" height="40" as="geometry" />
        </mxCell>
        <mxCell id="79gRq2DrtrsoFmL8w3pO-14" value="Quản lý hợp đồng" style="ellipse;whiteSpace=wrap;html=1;fillColor=#f5f5f5;fontColor=#333333;strokeColor=#666666;" parent="1" vertex="1">
          <mxGeometry x="3550" y="330" width="160" height="40" as="geometry" />
        </mxCell>
        <mxCell id="79gRq2DrtrsoFmL8w3pO-15" value="" style="endArrow=open;html=1;rounded=0;endFill=0;entryX=-0.011;entryY=0.535;entryDx=0;entryDy=0;entryPerimeter=0;" parent="1" source="79gRq2DrtrsoFmL8w3pO-2" target="79gRq2DrtrsoFmL8w3pO-9" edge="1">
          <mxGeometry width="50" height="50" relative="1" as="geometry">
            <mxPoint x="2750" y="340" as="sourcePoint" />
            <mxPoint x="2960" y="310" as="targetPoint" />
            <Array as="points" />
          </mxGeometry>
        </mxCell>
        <mxCell id="79gRq2DrtrsoFmL8w3pO-16" value="" style="endArrow=open;html=1;rounded=0;endFill=0;entryX=-0.015;entryY=0.518;entryDx=0;entryDy=0;entryPerimeter=0;" parent="1" source="79gRq2DrtrsoFmL8w3pO-2" target="79gRq2DrtrsoFmL8w3pO-10" edge="1">
          <mxGeometry width="50" height="50" relative="1" as="geometry">
            <mxPoint x="2745" y="350" as="sourcePoint" />
            <mxPoint x="2960" y="480" as="targetPoint" />
            <Array as="points" />
          </mxGeometry>
        </mxCell>
        <mxCell id="79gRq2DrtrsoFmL8w3pO-17" value="" style="endArrow=open;html=1;rounded=0;endFill=0;entryX=0.501;entryY=0.02;entryDx=0;entryDy=0;entryPerimeter=0;" parent="1" source="79gRq2DrtrsoFmL8w3pO-1" target="79gRq2DrtrsoFmL8w3pO-7" edge="1">
          <mxGeometry width="50" height="50" relative="1" as="geometry">
            <mxPoint x="3120" y="200" as="sourcePoint" />
            <mxPoint x="3280" y="321" as="targetPoint" />
            <Array as="points" />
          </mxGeometry>
        </mxCell>
        <mxCell id="79gRq2DrtrsoFmL8w3pO-18" value="Đăng nhập" style="ellipse;whiteSpace=wrap;html=1;fillColor=#f5f5f5;fontColor=#333333;strokeColor=#666666;" parent="1" vertex="1">
          <mxGeometry x="3200" y="480" width="160" height="40" as="geometry" />
        </mxCell>
        <mxCell id="79gRq2DrtrsoFmL8w3pO-19" value="" style="endArrow=open;html=1;rounded=0;endFill=0;entryX=-0.015;entryY=0.594;entryDx=0;entryDy=0;entryPerimeter=0;" parent="1" source="79gRq2DrtrsoFmL8w3pO-3" target="79gRq2DrtrsoFmL8w3pO-11" edge="1">
          <mxGeometry width="50" height="50" relative="1" as="geometry">
            <mxPoint x="2745" y="690" as="sourcePoint" />
            <mxPoint x="2970" y="770" as="targetPoint" />
            <Array as="points" />
          </mxGeometry>
        </mxCell>
        <mxCell id="79gRq2DrtrsoFmL8w3pO-20" value="" style="endArrow=open;html=1;rounded=0;endFill=0;entryX=0.506;entryY=1.059;entryDx=0;entryDy=0;entryPerimeter=0;" parent="1" source="79gRq2DrtrsoFmL8w3pO-4" target="79gRq2DrtrsoFmL8w3pO-12" edge="1">
          <mxGeometry width="50" height="50" relative="1" as="geometry">
            <mxPoint x="3060" y="685" as="sourcePoint" />
            <mxPoint x="3285" y="765" as="targetPoint" />
          </mxGeometry>
        </mxCell>
        <mxCell id="79gRq2DrtrsoFmL8w3pO-21" value="" style="endArrow=open;html=1;rounded=0;endFill=0;entryX=0.998;entryY=0.653;entryDx=0;entryDy=0;entryPerimeter=0;" parent="1" source="79gRq2DrtrsoFmL8w3pO-6" target="79gRq2DrtrsoFmL8w3pO-13" edge="1">
          <mxGeometry width="50" height="50" relative="1" as="geometry">
            <mxPoint x="3370" y="850" as="sourcePoint" />
            <mxPoint x="3291" y="772" as="targetPoint" />
          </mxGeometry>
        </mxCell>
        <mxCell id="79gRq2DrtrsoFmL8w3pO-22" value="" style="endArrow=open;html=1;rounded=0;endFill=0;entryX=1;entryY=0.487;entryDx=0;entryDy=0;entryPerimeter=0;" parent="1" source="79gRq2DrtrsoFmL8w3pO-5" target="79gRq2DrtrsoFmL8w3pO-14" edge="1">
          <mxGeometry width="50" height="50" relative="1" as="geometry">
            <mxPoint x="3650" y="700" as="sourcePoint" />
            <mxPoint x="3493" y="644" as="targetPoint" />
          </mxGeometry>
        </mxCell>
        <mxCell id="79gRq2DrtrsoFmL8w3pO-24" value="" style="endArrow=open;dashed=1;html=1;rounded=0;endFill=0;entryX=0.07;entryY=0.805;entryDx=0;entryDy=0;entryPerimeter=0;exitX=0.999;exitY=0.539;exitDx=0;exitDy=0;exitPerimeter=0;" parent="1" source="79gRq2DrtrsoFmL8w3pO-11" edge="1">
          <mxGeometry width="50" height="50" relative="1" as="geometry">
            <mxPoint x="3040" y="670" as="sourcePoint" />
            <mxPoint x="3200.0000000000005" y="519.9999999999998" as="targetPoint" />
            <Array as="points" />
          </mxGeometry>
        </mxCell>
        <mxCell id="79gRq2DrtrsoFmL8w3pO-25" value="&lt;font style=&quot;font-size: 6px;&quot;&gt;&amp;lt;&amp;lt;include&amp;gt;&amp;gt;&lt;/font&gt;" style="edgeLabel;html=1;align=center;verticalAlign=middle;resizable=0;points=[];" parent="79gRq2DrtrsoFmL8w3pO-24" vertex="1" connectable="0">
          <mxGeometry x="0.0391" y="1" relative="1" as="geometry">
            <mxPoint x="45" y="-49" as="offset" />
          </mxGeometry>
        </mxCell>
        <mxCell id="79gRq2DrtrsoFmL8w3pO-26" value="" style="endArrow=open;dashed=1;html=1;rounded=0;endFill=0;" parent="1" source="79gRq2DrtrsoFmL8w3pO-12" target="79gRq2DrtrsoFmL8w3pO-18" edge="1">
          <mxGeometry width="50" height="50" relative="1" as="geometry">
            <mxPoint x="3280" y="720" as="sourcePoint" />
            <mxPoint x="3210.0000000000005" y="529.9999999999998" as="targetPoint" />
            <Array as="points" />
          </mxGeometry>
        </mxCell>
        <mxCell id="79gRq2DrtrsoFmL8w3pO-27" value="&lt;font style=&quot;font-size: 6px;&quot;&gt;&amp;lt;&amp;lt;include&amp;gt;&amp;gt;&lt;/font&gt;" style="edgeLabel;html=1;align=center;verticalAlign=middle;resizable=0;points=[];" parent="79gRq2DrtrsoFmL8w3pO-26" vertex="1" connectable="0">
          <mxGeometry x="0.0391" y="1" relative="1" as="geometry">
            <mxPoint x="1" y="-13" as="offset" />
          </mxGeometry>
        </mxCell>
        <mxCell id="79gRq2DrtrsoFmL8w3pO-28" value="" style="endArrow=open;dashed=1;html=1;rounded=0;endFill=0;exitX=-0.002;exitY=0.489;exitDx=0;exitDy=0;exitPerimeter=0;entryX=0.861;entryY=0.9;entryDx=0;entryDy=0;entryPerimeter=0;" parent="1" source="79gRq2DrtrsoFmL8w3pO-13" target="79gRq2DrtrsoFmL8w3pO-18" edge="1">
          <mxGeometry width="50" height="50" relative="1" as="geometry">
            <mxPoint x="3290" y="730" as="sourcePoint" />
            <mxPoint x="3350" y="510" as="targetPoint" />
            <Array as="points" />
          </mxGeometry>
        </mxCell>
        <mxCell id="79gRq2DrtrsoFmL8w3pO-29" value="&lt;font style=&quot;font-size: 6px;&quot;&gt;&amp;lt;&amp;lt;include&amp;gt;&amp;gt;&lt;/font&gt;" style="edgeLabel;html=1;align=center;verticalAlign=middle;resizable=0;points=[];" parent="79gRq2DrtrsoFmL8w3pO-28" vertex="1" connectable="0">
          <mxGeometry x="0.0391" y="1" relative="1" as="geometry">
            <mxPoint x="-29" y="-3" as="offset" />
          </mxGeometry>
        </mxCell>
        <mxCell id="79gRq2DrtrsoFmL8w3pO-30" value="" style="endArrow=open;dashed=1;html=1;rounded=0;endFill=0;exitX=0.509;exitY=1.01;exitDx=0;exitDy=0;exitPerimeter=0;entryX=0.512;entryY=0.001;entryDx=0;entryDy=0;entryPerimeter=0;" parent="1" source="79gRq2DrtrsoFmL8w3pO-7" target="79gRq2DrtrsoFmL8w3pO-18" edge="1">
          <mxGeometry width="50" height="50" relative="1" as="geometry">
            <mxPoint x="3250" y="430" as="sourcePoint" />
            <mxPoint x="3279" y="490" as="targetPoint" />
            <Array as="points" />
          </mxGeometry>
        </mxCell>
        <mxCell id="79gRq2DrtrsoFmL8w3pO-31" value="&lt;font style=&quot;font-size: 6px;&quot;&gt;&amp;lt;&amp;lt;include&amp;gt;&amp;gt;&lt;/font&gt;" style="edgeLabel;html=1;align=center;verticalAlign=middle;resizable=0;points=[];" parent="79gRq2DrtrsoFmL8w3pO-30" vertex="1" connectable="0">
          <mxGeometry x="0.0391" y="1" relative="1" as="geometry">
            <mxPoint x="-3" y="25" as="offset" />
          </mxGeometry>
        </mxCell>
        <mxCell id="79gRq2DrtrsoFmL8w3pO-32" value="" style="endArrow=open;dashed=1;html=1;rounded=0;endFill=0;entryX=0.932;entryY=0.263;entryDx=0;entryDy=0;entryPerimeter=0;exitX=0.02;exitY=0.687;exitDx=0;exitDy=0;exitPerimeter=0;" parent="1" source="79gRq2DrtrsoFmL8w3pO-14" target="79gRq2DrtrsoFmL8w3pO-18" edge="1">
          <mxGeometry width="50" height="50" relative="1" as="geometry">
            <mxPoint x="3488" y="605" as="sourcePoint" />
            <mxPoint x="3361" y="520" as="targetPoint" />
          </mxGeometry>
        </mxCell>
        <mxCell id="79gRq2DrtrsoFmL8w3pO-33" value="&lt;font style=&quot;font-size: 6px;&quot;&gt;&amp;lt;&amp;lt;include&amp;gt;&amp;gt;&lt;/font&gt;" style="edgeLabel;html=1;align=center;verticalAlign=middle;resizable=0;points=[];" parent="79gRq2DrtrsoFmL8w3pO-32" vertex="1" connectable="0">
          <mxGeometry x="0.0391" y="1" relative="1" as="geometry">
            <mxPoint x="-37" y="25" as="offset" />
          </mxGeometry>
        </mxCell>
        <mxCell id="79gRq2DrtrsoFmL8w3pO-34" value="" style="endArrow=open;dashed=1;html=1;rounded=0;endFill=0;" parent="1" source="79gRq2DrtrsoFmL8w3pO-10" target="79gRq2DrtrsoFmL8w3pO-18" edge="1">
          <mxGeometry width="50" height="50" relative="1" as="geometry">
            <mxPoint x="3049.7599999999998" y="628.56" as="sourcePoint" />
            <mxPoint x="3160" y="510" as="targetPoint" />
            <Array as="points" />
          </mxGeometry>
        </mxCell>
        <mxCell id="79gRq2DrtrsoFmL8w3pO-35" value="&lt;font style=&quot;font-size: 6px;&quot;&gt;&amp;lt;&amp;lt;include&amp;gt;&amp;gt;&lt;/font&gt;" style="edgeLabel;html=1;align=center;verticalAlign=middle;resizable=0;points=[];" parent="79gRq2DrtrsoFmL8w3pO-34" vertex="1" connectable="0">
          <mxGeometry x="0.0391" y="1" relative="1" as="geometry">
            <mxPoint x="24" y="-4" as="offset" />
          </mxGeometry>
        </mxCell>
        <mxCell id="79gRq2DrtrsoFmL8w3pO-36" value="" style="endArrow=open;dashed=1;html=1;rounded=0;endFill=0;entryX=0.062;entryY=0.247;entryDx=0;entryDy=0;entryPerimeter=0;exitX=0.988;exitY=0.555;exitDx=0;exitDy=0;exitPerimeter=0;" parent="1" source="79gRq2DrtrsoFmL8w3pO-9" target="79gRq2DrtrsoFmL8w3pO-18" edge="1">
          <mxGeometry width="50" height="50" relative="1" as="geometry">
            <mxPoint x="3040" y="340" as="sourcePoint" />
            <mxPoint x="3200" y="519" as="targetPoint" />
            <Array as="points" />
          </mxGeometry>
        </mxCell>
        <mxCell id="79gRq2DrtrsoFmL8w3pO-37" value="&lt;font style=&quot;font-size: 6px;&quot;&gt;&amp;lt;&amp;lt;include&amp;gt;&amp;gt;&lt;/font&gt;" style="edgeLabel;html=1;align=center;verticalAlign=middle;resizable=0;points=[];" parent="79gRq2DrtrsoFmL8w3pO-36" vertex="1" connectable="0">
          <mxGeometry x="0.0391" y="1" relative="1" as="geometry">
            <mxPoint x="25" y="18" as="offset" />
          </mxGeometry>
        </mxCell>
        <mxCell id="79gRq2DrtrsoFmL8w3pO-39" value="&lt;font style=&quot;font-size: 10px;&quot;&gt;Thêm nhân viên&lt;/font&gt;" style="ellipse;whiteSpace=wrap;html=1;" parent="1" vertex="1">
          <mxGeometry x="2790" y="290" width="100" height="30" as="geometry" />
        </mxCell>
        <mxCell id="79gRq2DrtrsoFmL8w3pO-41" value="&lt;span style=&quot;font-size: 10px;&quot;&gt;Xử lý thôi việc&lt;/span&gt;" style="ellipse;whiteSpace=wrap;html=1;" parent="1" vertex="1">
          <mxGeometry x="2950" y="420" width="100" height="30" as="geometry" />
        </mxCell>
        <mxCell id="79gRq2DrtrsoFmL8w3pO-42" value="&lt;span style=&quot;font-size: 10px;&quot;&gt;Chỉnh sửa nhân viên&lt;/span&gt;" style="ellipse;whiteSpace=wrap;html=1;" parent="1" vertex="1">
          <mxGeometry x="2830" y="420" width="100" height="30" as="geometry" />
        </mxCell>
        <mxCell id="79gRq2DrtrsoFmL8w3pO-43" value="" style="endArrow=open;dashed=1;html=1;rounded=0;endFill=0;" parent="1" source="79gRq2DrtrsoFmL8w3pO-9" edge="1">
          <mxGeometry width="50" height="50" relative="1" as="geometry">
            <mxPoint x="2970" y="390" as="sourcePoint" />
            <mxPoint x="2930" y="380" as="targetPoint" />
          </mxGeometry>
        </mxCell>
        <mxCell id="79gRq2DrtrsoFmL8w3pO-44" value="&lt;font style=&quot;font-size: 6px;&quot;&gt;&amp;lt;&amp;lt;extend&amp;gt;&amp;gt;&lt;/font&gt;" style="edgeLabel;html=1;align=center;verticalAlign=middle;resizable=0;points=[];" parent="79gRq2DrtrsoFmL8w3pO-43" vertex="1" connectable="0">
          <mxGeometry x="0.0391" y="1" relative="1" as="geometry">
            <mxPoint x="16" y="11" as="offset" />
          </mxGeometry>
        </mxCell>
        <mxCell id="79gRq2DrtrsoFmL8w3pO-45" value="" style="endArrow=open;dashed=1;html=1;rounded=0;endFill=0;exitX=0.435;exitY=0.007;exitDx=0;exitDy=0;exitPerimeter=0;entryX=0.488;entryY=1.035;entryDx=0;entryDy=0;entryPerimeter=0;" parent="1" source="79gRq2DrtrsoFmL8w3pO-41" target="79gRq2DrtrsoFmL8w3pO-9" edge="1">
          <mxGeometry width="50" height="50" relative="1" as="geometry">
            <mxPoint x="3028" y="411" as="sourcePoint" />
            <mxPoint x="2930" y="380" as="targetPoint" />
          </mxGeometry>
        </mxCell>
        <mxCell id="79gRq2DrtrsoFmL8w3pO-46" value="&lt;font style=&quot;font-size: 6px;&quot;&gt;&amp;lt;&amp;lt;extend&amp;gt;&amp;gt;&lt;/font&gt;" style="edgeLabel;html=1;align=center;verticalAlign=middle;resizable=0;points=[];" parent="79gRq2DrtrsoFmL8w3pO-45" vertex="1" connectable="0">
          <mxGeometry x="0.0391" y="1" relative="1" as="geometry">
            <mxPoint x="11" y="-1" as="offset" />
          </mxGeometry>
        </mxCell>
        <mxCell id="79gRq2DrtrsoFmL8w3pO-47" value="" style="endArrow=open;dashed=1;html=1;rounded=0;endFill=0;entryX=0.482;entryY=-0.019;entryDx=0;entryDy=0;entryPerimeter=0;exitX=0.458;exitY=1.01;exitDx=0;exitDy=0;exitPerimeter=0;" parent="1" source="79gRq2DrtrsoFmL8w3pO-39" target="79gRq2DrtrsoFmL8w3pO-9" edge="1">
          <mxGeometry width="50" height="50" relative="1" as="geometry">
            <mxPoint x="2943" y="410" as="sourcePoint" />
            <mxPoint x="2961" y="371" as="targetPoint" />
          </mxGeometry>
        </mxCell>
        <mxCell id="79gRq2DrtrsoFmL8w3pO-48" value="&lt;font style=&quot;font-size: 6px;&quot;&gt;&amp;lt;&amp;lt;extend&amp;gt;&amp;gt;&lt;/font&gt;" style="edgeLabel;html=1;align=center;verticalAlign=middle;resizable=0;points=[];rotation=0;" parent="79gRq2DrtrsoFmL8w3pO-47" vertex="1" connectable="0">
          <mxGeometry x="0.0391" y="1" relative="1" as="geometry">
            <mxPoint x="-14" y="-5" as="offset" />
          </mxGeometry>
        </mxCell>
        <mxCell id="79gRq2DrtrsoFmL8w3pO-49" value="&lt;font style=&quot;font-size: 10px;&quot;&gt;Tìm kiếm nhân viên&lt;/font&gt;" style="ellipse;whiteSpace=wrap;html=1;" parent="1" vertex="1">
          <mxGeometry x="2895" y="290" width="100" height="30" as="geometry" />
        </mxCell>
        <mxCell id="79gRq2DrtrsoFmL8w3pO-50" value="" style="endArrow=open;dashed=1;html=1;rounded=0;endFill=0;entryX=0.466;entryY=-0.05;entryDx=0;entryDy=0;entryPerimeter=0;exitX=0.52;exitY=1.041;exitDx=0;exitDy=0;exitPerimeter=0;" parent="1" source="79gRq2DrtrsoFmL8w3pO-49" target="79gRq2DrtrsoFmL8w3pO-9" edge="1">
          <mxGeometry width="50" height="50" relative="1" as="geometry">
            <mxPoint x="2899" y="393" as="sourcePoint" />
            <mxPoint x="2915" y="364" as="targetPoint" />
          </mxGeometry>
        </mxCell>
        <mxCell id="79gRq2DrtrsoFmL8w3pO-51" value="&lt;font style=&quot;font-size: 6px;&quot;&gt;&amp;lt;&amp;lt;extend&amp;gt;&amp;gt;&lt;/font&gt;" style="edgeLabel;html=1;align=center;verticalAlign=middle;resizable=0;points=[];rotation=0;" parent="79gRq2DrtrsoFmL8w3pO-50" vertex="1" connectable="0">
          <mxGeometry x="0.0391" y="1" relative="1" as="geometry">
            <mxPoint x="3" y="-6" as="offset" />
          </mxGeometry>
        </mxCell>
        <mxCell id="79gRq2DrtrsoFmL8w3pO-52" value="&lt;span style=&quot;font-size: 10px;&quot;&gt;Xem thông tin nhân viên&lt;/span&gt;" style="ellipse;whiteSpace=wrap;html=1;" parent="1" vertex="1">
          <mxGeometry x="3000" y="290" width="110" height="35" as="geometry" />
        </mxCell>
        <mxCell id="79gRq2DrtrsoFmL8w3pO-53" value="" style="endArrow=open;dashed=1;html=1;rounded=0;endFill=0;exitX=0.512;exitY=0.989;exitDx=0;exitDy=0;exitPerimeter=0;entryX=0.47;entryY=-0.042;entryDx=0;entryDy=0;entryPerimeter=0;" parent="1" source="79gRq2DrtrsoFmL8w3pO-52" target="79gRq2DrtrsoFmL8w3pO-9" edge="1">
          <mxGeometry width="50" height="50" relative="1" as="geometry">
            <mxPoint x="2876" y="301" as="sourcePoint" />
            <mxPoint x="2960" y="320" as="targetPoint" />
          </mxGeometry>
        </mxCell>
        <mxCell id="79gRq2DrtrsoFmL8w3pO-54" value="&lt;font style=&quot;font-size: 6px;&quot;&gt;&amp;lt;&amp;lt;extend&amp;gt;&amp;gt;&lt;/font&gt;" style="edgeLabel;html=1;align=center;verticalAlign=middle;resizable=0;points=[];rotation=0;" parent="79gRq2DrtrsoFmL8w3pO-53" vertex="1" connectable="0">
          <mxGeometry x="0.0391" y="1" relative="1" as="geometry">
            <mxPoint x="11" y="-8" as="offset" />
          </mxGeometry>
        </mxCell>
        <mxCell id="79gRq2DrtrsoFmL8w3pO-55" value="&lt;span style=&quot;font-size: 10px;&quot;&gt;Tạo tài khoản&lt;/span&gt;" style="ellipse;whiteSpace=wrap;html=1;" parent="1" vertex="1">
          <mxGeometry x="3148" y="290" width="100" height="30" as="geometry" />
        </mxCell>
        <mxCell id="79gRq2DrtrsoFmL8w3pO-56" value="" style="endArrow=open;dashed=1;html=1;rounded=0;endFill=0;entryX=0.446;entryY=-0.008;entryDx=0;entryDy=0;entryPerimeter=0;exitX=0.454;exitY=1.08;exitDx=0;exitDy=0;exitPerimeter=0;" parent="1" source="79gRq2DrtrsoFmL8w3pO-55" target="79gRq2DrtrsoFmL8w3pO-7" edge="1">
          <mxGeometry width="50" height="50" relative="1" as="geometry">
            <mxPoint x="3405" y="190" as="sourcePoint" />
            <mxPoint x="3348" y="198" as="targetPoint" />
          </mxGeometry>
        </mxCell>
        <mxCell id="79gRq2DrtrsoFmL8w3pO-57" value="&lt;font style=&quot;font-size: 8px;&quot;&gt;&amp;lt;&amp;lt;extend&amp;gt;&amp;gt;&lt;/font&gt;" style="edgeLabel;html=1;align=center;verticalAlign=middle;resizable=0;points=[];" parent="79gRq2DrtrsoFmL8w3pO-56" vertex="1" connectable="0">
          <mxGeometry x="0.0391" y="1" relative="1" as="geometry">
            <mxPoint x="10" y="-2" as="offset" />
          </mxGeometry>
        </mxCell>
        <mxCell id="79gRq2DrtrsoFmL8w3pO-58" value="&lt;span style=&quot;font-size: 10px;&quot;&gt;Chỉnh sửa tài khoản&lt;/span&gt;" style="ellipse;whiteSpace=wrap;html=1;" parent="1" vertex="1">
          <mxGeometry x="3320" y="290" width="100" height="30" as="geometry" />
        </mxCell>
        <mxCell id="79gRq2DrtrsoFmL8w3pO-59" value="" style="endArrow=open;dashed=1;html=1;rounded=0;endFill=0;exitX=0.496;exitY=1.04;exitDx=0;exitDy=0;exitPerimeter=0;entryX=0.561;entryY=0.022;entryDx=0;entryDy=0;entryPerimeter=0;" parent="1" source="79gRq2DrtrsoFmL8w3pO-58" target="79gRq2DrtrsoFmL8w3pO-7" edge="1">
          <mxGeometry width="50" height="50" relative="1" as="geometry">
            <mxPoint x="3184.9300000000003" y="300" as="sourcePoint" />
            <mxPoint x="3340" y="340" as="targetPoint" />
          </mxGeometry>
        </mxCell>
        <mxCell id="79gRq2DrtrsoFmL8w3pO-60" value="&lt;font style=&quot;font-size: 8px;&quot;&gt;&amp;lt;&amp;lt;extend&amp;gt;&amp;gt;&lt;/font&gt;" style="edgeLabel;html=1;align=center;verticalAlign=middle;resizable=0;points=[];" parent="79gRq2DrtrsoFmL8w3pO-59" vertex="1" connectable="0">
          <mxGeometry x="0.0391" y="1" relative="1" as="geometry">
            <mxPoint x="-8" y="-5" as="offset" />
          </mxGeometry>
        </mxCell>
        <mxCell id="79gRq2DrtrsoFmL8w3pO-64" value="&lt;span style=&quot;font-size: 10px;&quot;&gt;Xóa tài khoản&lt;/span&gt;" style="ellipse;whiteSpace=wrap;html=1;" parent="1" vertex="1">
          <mxGeometry x="3295" y="395" width="100" height="30" as="geometry" />
        </mxCell>
        <mxCell id="79gRq2DrtrsoFmL8w3pO-65" value="" style="endArrow=open;dashed=1;html=1;rounded=0;endFill=0;entryX=0.555;entryY=1.058;entryDx=0;entryDy=0;entryPerimeter=0;exitX=0.468;exitY=0.019;exitDx=0;exitDy=0;exitPerimeter=0;" parent="1" source="79gRq2DrtrsoFmL8w3pO-64" target="79gRq2DrtrsoFmL8w3pO-7" edge="1">
          <mxGeometry width="50" height="50" relative="1" as="geometry">
            <mxPoint x="3465" y="220" as="sourcePoint" />
            <mxPoint x="3365" y="360" as="targetPoint" />
            <Array as="points" />
          </mxGeometry>
        </mxCell>
        <mxCell id="79gRq2DrtrsoFmL8w3pO-66" value="&lt;font style=&quot;font-size: 8px;&quot;&gt;&amp;lt;&amp;lt;extend&amp;gt;&amp;gt;&lt;/font&gt;" style="edgeLabel;html=1;align=center;verticalAlign=middle;resizable=0;points=[];" parent="79gRq2DrtrsoFmL8w3pO-65" vertex="1" connectable="0">
          <mxGeometry x="0.0391" y="1" relative="1" as="geometry">
            <mxPoint x="10" y="-2" as="offset" />
          </mxGeometry>
        </mxCell>
        <mxCell id="79gRq2DrtrsoFmL8w3pO-70" value="Chia công đoạn" style="ellipse;whiteSpace=wrap;html=1;fillColor=#f5f5f5;fontColor=#333333;strokeColor=#666666;" parent="1" vertex="1">
          <mxGeometry x="3540" y="650" width="160" height="40" as="geometry" />
        </mxCell>
        <mxCell id="79gRq2DrtrsoFmL8w3pO-71" value="" style="endArrow=open;html=1;rounded=0;endFill=0;entryX=0.999;entryY=0.522;entryDx=0;entryDy=0;entryPerimeter=0;" parent="1" source="79gRq2DrtrsoFmL8w3pO-6" target="79gRq2DrtrsoFmL8w3pO-70" edge="1">
          <mxGeometry width="50" height="50" relative="1" as="geometry">
            <mxPoint x="3662" y="670" as="sourcePoint" />
            <mxPoint x="3593" y="539" as="targetPoint" />
            <Array as="points" />
          </mxGeometry>
        </mxCell>
        <mxCell id="79gRq2DrtrsoFmL8w3pO-73" value="" style="endArrow=open;dashed=1;html=1;rounded=0;endFill=0;exitX=0.483;exitY=0.026;exitDx=0;exitDy=0;exitPerimeter=0;entryX=0.506;entryY=1.012;entryDx=0;entryDy=0;entryPerimeter=0;" parent="1" source="79gRq2DrtrsoFmL8w3pO-72" target="79gRq2DrtrsoFmL8w3pO-12" edge="1">
          <mxGeometry width="50" height="50" relative="1" as="geometry">
            <mxPoint x="3120" y="631" as="sourcePoint" />
            <mxPoint x="3237" y="676" as="targetPoint" />
          </mxGeometry>
        </mxCell>
        <mxCell id="79gRq2DrtrsoFmL8w3pO-74" value="&lt;font style=&quot;font-size: 8px;&quot;&gt;&amp;lt;&amp;lt;extend&amp;gt;&amp;gt;&lt;/font&gt;" style="edgeLabel;html=1;align=center;verticalAlign=middle;resizable=0;points=[];" parent="79gRq2DrtrsoFmL8w3pO-73" vertex="1" connectable="0">
          <mxGeometry x="0.0391" y="1" relative="1" as="geometry">
            <mxPoint x="2" y="-4" as="offset" />
          </mxGeometry>
        </mxCell>
        <mxCell id="79gRq2DrtrsoFmL8w3pO-78" value="&lt;span style=&quot;font-size: 10px;&quot;&gt;Chấm công công nhân&lt;/span&gt;" style="ellipse;whiteSpace=wrap;html=1;" parent="1" vertex="1">
          <mxGeometry x="3300" y="700" width="120" height="30" as="geometry" />
        </mxCell>
        <mxCell id="79gRq2DrtrsoFmL8w3pO-79" value="" style="endArrow=open;dashed=1;html=1;rounded=0;endFill=0;exitX=0.482;exitY=-0.013;exitDx=0;exitDy=0;exitPerimeter=0;entryX=0.491;entryY=1.016;entryDx=0;entryDy=0;entryPerimeter=0;" parent="1" source="79gRq2DrtrsoFmL8w3pO-78" target="79gRq2DrtrsoFmL8w3pO-12" edge="1">
          <mxGeometry width="50" height="50" relative="1" as="geometry">
            <mxPoint x="3270" y="625" as="sourcePoint" />
            <mxPoint x="3280" y="670" as="targetPoint" />
          </mxGeometry>
        </mxCell>
        <mxCell id="79gRq2DrtrsoFmL8w3pO-80" value="&lt;font style=&quot;font-size: 8px;&quot;&gt;&amp;lt;&amp;lt;extend&amp;gt;&amp;gt;&lt;/font&gt;" style="edgeLabel;html=1;align=center;verticalAlign=middle;resizable=0;points=[];" parent="79gRq2DrtrsoFmL8w3pO-79" vertex="1" connectable="0">
          <mxGeometry x="0.0391" y="1" relative="1" as="geometry">
            <mxPoint x="4" y="-6" as="offset" />
          </mxGeometry>
        </mxCell>
        <mxCell id="79gRq2DrtrsoFmL8w3pO-81" value="&lt;span style=&quot;font-size: 10px;&quot;&gt;Tính lương nhân viên&lt;/span&gt;" style="ellipse;whiteSpace=wrap;html=1;" parent="1" vertex="1">
          <mxGeometry x="2820" y="635" width="100" height="30" as="geometry" />
        </mxCell>
        <mxCell id="79gRq2DrtrsoFmL8w3pO-82" value="" style="endArrow=open;dashed=1;html=1;rounded=0;endFill=0;entryX=0.447;entryY=-0.034;entryDx=0;entryDy=0;entryPerimeter=0;exitX=0.499;exitY=1.082;exitDx=0;exitDy=0;exitPerimeter=0;" parent="1" source="79gRq2DrtrsoFmL8w3pO-81" target="79gRq2DrtrsoFmL8w3pO-11" edge="1">
          <mxGeometry width="50" height="50" relative="1" as="geometry">
            <mxPoint x="2978" y="555.5" as="sourcePoint" />
            <mxPoint x="2901" y="505.5" as="targetPoint" />
          </mxGeometry>
        </mxCell>
        <mxCell id="79gRq2DrtrsoFmL8w3pO-83" value="&lt;font style=&quot;font-size: 6px;&quot;&gt;&amp;lt;&amp;lt;extend&amp;gt;&amp;gt;&lt;/font&gt;" style="edgeLabel;html=1;align=center;verticalAlign=middle;resizable=0;points=[];" parent="79gRq2DrtrsoFmL8w3pO-82" vertex="1" connectable="0">
          <mxGeometry x="0.0391" y="1" relative="1" as="geometry">
            <mxPoint x="-5" y="-5" as="offset" />
          </mxGeometry>
        </mxCell>
        <mxCell id="79gRq2DrtrsoFmL8w3pO-84" value="&lt;span style=&quot;font-size: 10px;&quot;&gt;Cập nhật lương&lt;/span&gt;" style="ellipse;whiteSpace=wrap;html=1;" parent="1" vertex="1">
          <mxGeometry x="2960" y="635" width="100" height="30" as="geometry" />
        </mxCell>
        <mxCell id="79gRq2DrtrsoFmL8w3pO-85" value="" style="endArrow=open;dashed=1;html=1;rounded=0;endFill=0;exitX=0.491;exitY=1.068;exitDx=0;exitDy=0;exitPerimeter=0;entryX=0.494;entryY=0.03;entryDx=0;entryDy=0;entryPerimeter=0;" parent="1" source="79gRq2DrtrsoFmL8w3pO-84" target="79gRq2DrtrsoFmL8w3pO-11" edge="1">
          <mxGeometry width="50" height="50" relative="1" as="geometry">
            <mxPoint x="2840" y="650" as="sourcePoint" />
            <mxPoint x="2940" y="690" as="targetPoint" />
          </mxGeometry>
        </mxCell>
        <mxCell id="79gRq2DrtrsoFmL8w3pO-86" value="&lt;font style=&quot;font-size: 6px;&quot;&gt;&amp;lt;&amp;lt;extend&amp;gt;&amp;gt;&lt;/font&gt;" style="edgeLabel;html=1;align=center;verticalAlign=middle;resizable=0;points=[];" parent="79gRq2DrtrsoFmL8w3pO-85" vertex="1" connectable="0">
          <mxGeometry x="0.0391" y="1" relative="1" as="geometry">
            <mxPoint x="4" y="-8" as="offset" />
          </mxGeometry>
        </mxCell>
        <mxCell id="79gRq2DrtrsoFmL8w3pO-87" value="&lt;span style=&quot;font-size: 10px;&quot;&gt;Thống kê lương&lt;/span&gt;" style="ellipse;whiteSpace=wrap;html=1;" parent="1" vertex="1">
          <mxGeometry x="2895" y="750" width="100" height="30" as="geometry" />
        </mxCell>
        <mxCell id="79gRq2DrtrsoFmL8w3pO-88" value="" style="endArrow=open;dashed=1;html=1;rounded=0;endFill=0;entryX=0.485;entryY=1.03;entryDx=0;entryDy=0;entryPerimeter=0;" parent="1" source="79gRq2DrtrsoFmL8w3pO-87" target="79gRq2DrtrsoFmL8w3pO-11" edge="1">
          <mxGeometry width="50" height="50" relative="1" as="geometry">
            <mxPoint x="2925" y="629.5" as="sourcePoint" />
            <mxPoint x="2954" y="706" as="targetPoint" />
          </mxGeometry>
        </mxCell>
        <mxCell id="79gRq2DrtrsoFmL8w3pO-89" value="&lt;font style=&quot;font-size: 6px;&quot;&gt;&amp;lt;&amp;lt;extend&amp;gt;&amp;gt;&lt;/font&gt;" style="edgeLabel;html=1;align=center;verticalAlign=middle;resizable=0;points=[];" parent="79gRq2DrtrsoFmL8w3pO-88" vertex="1" connectable="0">
          <mxGeometry x="0.0391" y="1" relative="1" as="geometry">
            <mxPoint x="3" y="2" as="offset" />
          </mxGeometry>
        </mxCell>
        <mxCell id="79gRq2DrtrsoFmL8w3pO-90" value="&lt;span style=&quot;font-size: 10px;&quot;&gt;Tạo hợp đồng&lt;/span&gt;" style="ellipse;whiteSpace=wrap;html=1;" parent="1" vertex="1">
          <mxGeometry x="3510" y="270" width="100" height="30" as="geometry" />
        </mxCell>
        <mxCell id="79gRq2DrtrsoFmL8w3pO-91" value="" style="endArrow=open;dashed=1;html=1;rounded=0;endFill=0;entryX=0.42;entryY=0.029;entryDx=0;entryDy=0;entryPerimeter=0;exitX=0.563;exitY=1.067;exitDx=0;exitDy=0;exitPerimeter=0;" parent="1" source="79gRq2DrtrsoFmL8w3pO-90" target="79gRq2DrtrsoFmL8w3pO-14" edge="1">
          <mxGeometry width="50" height="50" relative="1" as="geometry">
            <mxPoint x="3530" y="350" as="sourcePoint" />
            <mxPoint x="3415" y="478" as="targetPoint" />
          </mxGeometry>
        </mxCell>
        <mxCell id="79gRq2DrtrsoFmL8w3pO-92" value="&lt;font style=&quot;font-size: 8px;&quot;&gt;&amp;lt;&amp;lt;extend&amp;gt;&amp;gt;&lt;/font&gt;" style="edgeLabel;html=1;align=center;verticalAlign=middle;resizable=0;points=[];" parent="79gRq2DrtrsoFmL8w3pO-91" vertex="1" connectable="0">
          <mxGeometry x="0.0391" y="1" relative="1" as="geometry">
            <mxPoint x="-3" as="offset" />
          </mxGeometry>
        </mxCell>
        <mxCell id="79gRq2DrtrsoFmL8w3pO-93" value="&lt;span style=&quot;font-size: 10px;&quot;&gt;Sửa hợp đồng&lt;/span&gt;" style="ellipse;whiteSpace=wrap;html=1;" parent="1" vertex="1">
          <mxGeometry x="3510" y="400" width="100" height="30" as="geometry" />
        </mxCell>
        <mxCell id="79gRq2DrtrsoFmL8w3pO-95" value="" style="endArrow=open;dashed=1;html=1;rounded=0;endFill=0;entryX=0.465;entryY=1.035;entryDx=0;entryDy=0;entryPerimeter=0;exitX=0.496;exitY=0.044;exitDx=0;exitDy=0;exitPerimeter=0;" parent="1" source="79gRq2DrtrsoFmL8w3pO-93" target="79gRq2DrtrsoFmL8w3pO-14" edge="1">
          <mxGeometry width="50" height="50" relative="1" as="geometry">
            <mxPoint x="3429" y="442" as="sourcePoint" />
            <mxPoint x="3457" y="410" as="targetPoint" />
          </mxGeometry>
        </mxCell>
        <mxCell id="79gRq2DrtrsoFmL8w3pO-96" value="&lt;font style=&quot;font-size: 8px;&quot;&gt;&amp;lt;&amp;lt;extend&amp;gt;&amp;gt;&lt;/font&gt;" style="edgeLabel;html=1;align=center;verticalAlign=middle;resizable=0;points=[];" parent="79gRq2DrtrsoFmL8w3pO-95" vertex="1" connectable="0">
          <mxGeometry x="0.0391" y="1" relative="1" as="geometry">
            <mxPoint x="-3" as="offset" />
          </mxGeometry>
        </mxCell>
        <mxCell id="79gRq2DrtrsoFmL8w3pO-97" value="&lt;span style=&quot;font-size: 10px;&quot;&gt;Cập nhật trạng thái&lt;/span&gt;" style="ellipse;whiteSpace=wrap;html=1;fillColor=#C4C4C4;fontColor=#333333;strokeColor=#000000;" parent="1" vertex="1">
          <mxGeometry x="3640" y="400" width="100" height="30" as="geometry" />
        </mxCell>
        <mxCell id="79gRq2DrtrsoFmL8w3pO-98" value="" style="endArrow=open;dashed=1;html=1;rounded=0;endFill=0;exitX=0.474;exitY=0.095;exitDx=0;exitDy=0;exitPerimeter=0;entryX=0.523;entryY=1.071;entryDx=0;entryDy=0;entryPerimeter=0;" parent="1" source="79gRq2DrtrsoFmL8w3pO-97" target="79gRq2DrtrsoFmL8w3pO-14" edge="1">
          <mxGeometry width="50" height="50" relative="1" as="geometry">
            <mxPoint x="3455" y="312" as="sourcePoint" />
            <mxPoint x="3530" y="360" as="targetPoint" />
          </mxGeometry>
        </mxCell>
        <mxCell id="79gRq2DrtrsoFmL8w3pO-99" value="&lt;font style=&quot;font-size: 8px;&quot;&gt;&amp;lt;&amp;lt;extend&amp;gt;&amp;gt;&lt;/font&gt;" style="edgeLabel;html=1;align=center;verticalAlign=middle;resizable=0;points=[];" parent="79gRq2DrtrsoFmL8w3pO-98" vertex="1" connectable="0">
          <mxGeometry x="0.0391" y="1" relative="1" as="geometry">
            <mxPoint x="7" y="-1" as="offset" />
          </mxGeometry>
        </mxCell>
        <mxCell id="79gRq2DrtrsoFmL8w3pO-103" value="&lt;span style=&quot;font-size: 10px;&quot;&gt;Xem sản phẩm&lt;/span&gt;" style="ellipse;whiteSpace=wrap;html=1;" parent="1" vertex="1">
          <mxGeometry x="3490" y="485" width="100" height="30" as="geometry" />
        </mxCell>
        <mxCell id="79gRq2DrtrsoFmL8w3pO-104" value="" style="endArrow=open;dashed=1;html=1;rounded=0;endFill=0;exitX=0.854;exitY=0.885;exitDx=0;exitDy=0;exitPerimeter=0;entryX=0.447;entryY=0.035;entryDx=0;entryDy=0;entryPerimeter=0;" parent="1" source="79gRq2DrtrsoFmL8w3pO-103" target="79gRq2DrtrsoFmL8w3pO-13" edge="1">
          <mxGeometry width="50" height="50" relative="1" as="geometry">
            <mxPoint x="3579" y="462" as="sourcePoint" />
            <mxPoint x="3551" y="408" as="targetPoint" />
          </mxGeometry>
        </mxCell>
        <mxCell id="79gRq2DrtrsoFmL8w3pO-105" value="&lt;font style=&quot;font-size: 8px;&quot;&gt;&amp;lt;&amp;lt;extend&amp;gt;&amp;gt;&lt;/font&gt;" style="edgeLabel;html=1;align=center;verticalAlign=middle;resizable=0;points=[];" parent="79gRq2DrtrsoFmL8w3pO-104" vertex="1" connectable="0">
          <mxGeometry x="0.0391" y="1" relative="1" as="geometry">
            <mxPoint x="-10" y="-1" as="offset" />
          </mxGeometry>
        </mxCell>
        <mxCell id="79gRq2DrtrsoFmL8w3pO-106" value="&lt;span style=&quot;font-size: 10px;&quot;&gt;Sửa thông tin sản phẩm&lt;br&gt;&lt;/span&gt;" style="ellipse;whiteSpace=wrap;html=1;" parent="1" vertex="1">
          <mxGeometry x="3640" y="490" width="110" height="30" as="geometry" />
        </mxCell>
        <mxCell id="79gRq2DrtrsoFmL8w3pO-107" value="" style="endArrow=open;dashed=1;html=1;rounded=0;endFill=0;exitX=0.502;exitY=1.038;exitDx=0;exitDy=0;exitPerimeter=0;entryX=0.48;entryY=-0.005;entryDx=0;entryDy=0;entryPerimeter=0;" parent="1" source="79gRq2DrtrsoFmL8w3pO-106" target="79gRq2DrtrsoFmL8w3pO-13" edge="1">
          <mxGeometry width="50" height="50" relative="1" as="geometry">
            <mxPoint x="3679" y="442" as="sourcePoint" />
            <mxPoint x="3558" y="542" as="targetPoint" />
          </mxGeometry>
        </mxCell>
        <mxCell id="79gRq2DrtrsoFmL8w3pO-108" value="&lt;font style=&quot;font-size: 8px;&quot;&gt;&amp;lt;&amp;lt;extend&amp;gt;&amp;gt;&lt;/font&gt;" style="edgeLabel;html=1;align=center;verticalAlign=middle;resizable=0;points=[];" parent="79gRq2DrtrsoFmL8w3pO-107" vertex="1" connectable="0">
          <mxGeometry x="0.0391" y="1" relative="1" as="geometry">
            <mxPoint x="5" y="-7" as="offset" />
          </mxGeometry>
        </mxCell>
        <mxCell id="79gRq2DrtrsoFmL8w3pO-109" value="&lt;span style=&quot;font-size: 10px;&quot;&gt;Thêm công đoạn&lt;/span&gt;" style="ellipse;whiteSpace=wrap;html=1;" parent="1" vertex="1">
          <mxGeometry x="3460" y="605" width="100" height="30" as="geometry" />
        </mxCell>
        <mxCell id="79gRq2DrtrsoFmL8w3pO-110" value="" style="endArrow=open;dashed=1;html=1;rounded=0;endFill=0;exitX=0.502;exitY=1.04;exitDx=0;exitDy=0;exitPerimeter=0;entryX=0.474;entryY=-0.035;entryDx=0;entryDy=0;entryPerimeter=0;" parent="1" source="79gRq2DrtrsoFmL8w3pO-109" target="79gRq2DrtrsoFmL8w3pO-70" edge="1">
          <mxGeometry width="50" height="50" relative="1" as="geometry">
            <mxPoint x="3465" y="547" as="sourcePoint" />
            <mxPoint x="3468" y="572" as="targetPoint" />
          </mxGeometry>
        </mxCell>
        <mxCell id="79gRq2DrtrsoFmL8w3pO-111" value="&lt;font style=&quot;font-size: 8px;&quot;&gt;&amp;lt;&amp;lt;extend&amp;gt;&amp;gt;&lt;/font&gt;" style="edgeLabel;html=1;align=center;verticalAlign=middle;resizable=0;points=[];" parent="79gRq2DrtrsoFmL8w3pO-110" vertex="1" connectable="0">
          <mxGeometry x="0.0391" y="1" relative="1" as="geometry">
            <mxPoint x="-3" as="offset" />
          </mxGeometry>
        </mxCell>
        <mxCell id="79gRq2DrtrsoFmL8w3pO-113" value="&lt;span style=&quot;font-size: 10px;&quot;&gt;Xóa công đoạn&lt;/span&gt;" style="ellipse;whiteSpace=wrap;html=1;" parent="1" vertex="1">
          <mxGeometry x="3500" y="725" width="100" height="30" as="geometry" />
        </mxCell>
        <mxCell id="79gRq2DrtrsoFmL8w3pO-114" value="" style="endArrow=open;dashed=1;html=1;rounded=0;endFill=0;exitX=0.526;exitY=0.053;exitDx=0;exitDy=0;exitPerimeter=0;entryX=0.451;entryY=0.995;entryDx=0;entryDy=0;entryPerimeter=0;" parent="1" source="79gRq2DrtrsoFmL8w3pO-113" target="79gRq2DrtrsoFmL8w3pO-70" edge="1">
          <mxGeometry width="50" height="50" relative="1" as="geometry">
            <mxPoint x="3565" y="532" as="sourcePoint" />
            <mxPoint x="3524" y="654" as="targetPoint" />
          </mxGeometry>
        </mxCell>
        <mxCell id="79gRq2DrtrsoFmL8w3pO-115" value="&lt;font style=&quot;font-size: 8px;&quot;&gt;&amp;lt;&amp;lt;extend&amp;gt;&amp;gt;&lt;/font&gt;" style="edgeLabel;html=1;align=center;verticalAlign=middle;resizable=0;points=[];" parent="79gRq2DrtrsoFmL8w3pO-114" vertex="1" connectable="0">
          <mxGeometry x="0.0391" y="1" relative="1" as="geometry">
            <mxPoint x="-3" as="offset" />
          </mxGeometry>
        </mxCell>
        <mxCell id="79gRq2DrtrsoFmL8w3pO-116" value="&lt;span style=&quot;font-size: 10px;&quot;&gt;Sửa công đoạn&lt;/span&gt;" style="ellipse;whiteSpace=wrap;html=1;" parent="1" vertex="1">
          <mxGeometry x="3680" y="605" width="100" height="30" as="geometry" />
        </mxCell>
        <mxCell id="79gRq2DrtrsoFmL8w3pO-117" value="" style="endArrow=open;dashed=1;html=1;rounded=0;endFill=0;" parent="1" edge="1">
          <mxGeometry width="50" height="50" relative="1" as="geometry">
            <mxPoint x="3726" y="637" as="sourcePoint" />
            <mxPoint x="3630" y="650" as="targetPoint" />
          </mxGeometry>
        </mxCell>
        <mxCell id="79gRq2DrtrsoFmL8w3pO-118" value="&lt;font style=&quot;font-size: 8px;&quot;&gt;&amp;lt;&amp;lt;extend&amp;gt;&amp;gt;&lt;/font&gt;" style="edgeLabel;html=1;align=center;verticalAlign=middle;resizable=0;points=[];" parent="79gRq2DrtrsoFmL8w3pO-117" vertex="1" connectable="0">
          <mxGeometry x="0.0391" y="1" relative="1" as="geometry">
            <mxPoint x="-3" as="offset" />
          </mxGeometry>
        </mxCell>
        <mxCell id="79gRq2DrtrsoFmL8w3pO-119" value="&lt;span style=&quot;font-size: 10px;&quot;&gt;Phân chia công đoạn cho công nhân&lt;/span&gt;" style="ellipse;whiteSpace=wrap;html=1;" parent="1" vertex="1">
          <mxGeometry x="3620" y="720" width="120" height="37.5" as="geometry" />
        </mxCell>
        <mxCell id="79gRq2DrtrsoFmL8w3pO-120" value="" style="endArrow=open;dashed=1;html=1;rounded=0;endFill=0;exitX=0.554;exitY=0.013;exitDx=0;exitDy=0;exitPerimeter=0;entryX=0.556;entryY=1.005;entryDx=0;entryDy=0;entryPerimeter=0;" parent="1" source="79gRq2DrtrsoFmL8w3pO-119" target="79gRq2DrtrsoFmL8w3pO-70" edge="1">
          <mxGeometry width="50" height="50" relative="1" as="geometry">
            <mxPoint x="3443.96" y="655.6" as="sourcePoint" />
            <mxPoint x="3430" y="720" as="targetPoint" />
          </mxGeometry>
        </mxCell>
        <mxCell id="79gRq2DrtrsoFmL8w3pO-121" value="&lt;font style=&quot;font-size: 8px;&quot;&gt;&amp;lt;&amp;lt;extend&amp;gt;&amp;gt;&lt;/font&gt;" style="edgeLabel;html=1;align=center;verticalAlign=middle;resizable=0;points=[];" parent="79gRq2DrtrsoFmL8w3pO-120" vertex="1" connectable="0">
          <mxGeometry x="0.0391" y="1" relative="1" as="geometry">
            <mxPoint x="-3" as="offset" />
          </mxGeometry>
        </mxCell>
        <mxCell id="79gRq2DrtrsoFmL8w3pO-122" value="&lt;span style=&quot;font-size: 10px;&quot;&gt;Xem công đoạn&lt;/span&gt;" style="ellipse;whiteSpace=wrap;html=1;" parent="1" vertex="1">
          <mxGeometry x="3570" y="605.0000000000001" width="100" height="30" as="geometry" />
        </mxCell>
        <mxCell id="79gRq2DrtrsoFmL8w3pO-123" value="" style="endArrow=open;dashed=1;html=1;rounded=0;endFill=0;entryX=0.491;entryY=0.015;entryDx=0;entryDy=0;entryPerimeter=0;" parent="1" source="79gRq2DrtrsoFmL8w3pO-122" target="79gRq2DrtrsoFmL8w3pO-70" edge="1">
          <mxGeometry width="50" height="50" relative="1" as="geometry">
            <mxPoint x="3550.98" y="665.8000000000001" as="sourcePoint" />
            <mxPoint x="3524.02" y="711.2" as="targetPoint" />
          </mxGeometry>
        </mxCell>
        <mxCell id="79gRq2DrtrsoFmL8w3pO-124" value="&lt;font style=&quot;font-size: 8px;&quot;&gt;&amp;lt;&amp;lt;extend&amp;gt;&amp;gt;&lt;/font&gt;" style="edgeLabel;html=1;align=center;verticalAlign=middle;resizable=0;points=[];" parent="79gRq2DrtrsoFmL8w3pO-123" vertex="1" connectable="0">
          <mxGeometry x="0.0391" y="1" relative="1" as="geometry">
            <mxPoint x="-3" as="offset" />
          </mxGeometry>
        </mxCell>
        <mxCell id="5RVm7mu3YjyD82HHT5HA-8" value="" style="endArrow=open;dashed=1;html=1;rounded=0;endFill=0;" parent="1" target="79gRq2DrtrsoFmL8w3pO-9" edge="1">
          <mxGeometry width="50" height="50" relative="1" as="geometry">
            <mxPoint x="2970" y="390" as="sourcePoint" />
            <mxPoint x="2930" y="380" as="targetPoint" />
          </mxGeometry>
        </mxCell>
        <mxCell id="79gRq2DrtrsoFmL8w3pO-9" value="Quản lý nhân viên" style="ellipse;whiteSpace=wrap;html=1;fillColor=#f5f5f5;fontColor=#333333;strokeColor=#666666;" parent="1" vertex="1">
          <mxGeometry x="2870" y="360" width="160" height="40" as="geometry" />
        </mxCell>
        <mxCell id="5RVm7mu3YjyD82HHT5HA-10" value="" style="endArrow=open;dashed=1;html=1;rounded=0;endFill=0;entryX=0.48;entryY=1.019;entryDx=0;entryDy=0;entryPerimeter=0;exitX=0.512;exitY=-0.044;exitDx=0;exitDy=0;exitPerimeter=0;" parent="1" source="79gRq2DrtrsoFmL8w3pO-42" target="79gRq2DrtrsoFmL8w3pO-9" edge="1">
          <mxGeometry width="50" height="50" relative="1" as="geometry">
            <mxPoint x="2816" y="320" as="sourcePoint" />
            <mxPoint x="2957" y="369" as="targetPoint" />
          </mxGeometry>
        </mxCell>
        <mxCell id="5RVm7mu3YjyD82HHT5HA-11" value="&lt;font style=&quot;font-size: 6px;&quot;&gt;&amp;lt;&amp;lt;extend&amp;gt;&amp;gt;&lt;/font&gt;" style="edgeLabel;html=1;align=center;verticalAlign=middle;resizable=0;points=[];rotation=0;" parent="5RVm7mu3YjyD82HHT5HA-10" vertex="1" connectable="0">
          <mxGeometry x="0.0391" y="1" relative="1" as="geometry">
            <mxPoint x="-5" y="2" as="offset" />
          </mxGeometry>
        </mxCell>
        <mxCell id="79gRq2DrtrsoFmL8w3pO-72" value="&lt;span style=&quot;font-size: 10px;&quot;&gt;Chấm công nhân viên hành chính&lt;br&gt;&lt;/span&gt;" style="ellipse;whiteSpace=wrap;html=1;" parent="1" vertex="1">
          <mxGeometry x="3098" y="700" width="167" height="30" as="geometry" />
        </mxCell>
        <mxCell id="5RVm7mu3YjyD82HHT5HA-21" value="" style="endArrow=open;dashed=1;html=1;rounded=0;endFill=0;entryX=0.807;entryY=0.904;entryDx=0;entryDy=0;entryPerimeter=0;exitX=-0.012;exitY=0.569;exitDx=0;exitDy=0;exitPerimeter=0;" parent="1" source="79gRq2DrtrsoFmL8w3pO-70" target="79gRq2DrtrsoFmL8w3pO-18" edge="1">
          <mxGeometry width="50" height="50" relative="1" as="geometry">
            <mxPoint x="3560" y="560" as="sourcePoint" />
            <mxPoint x="3348" y="526" as="targetPoint" />
            <Array as="points">
              <mxPoint x="3440" y="630" />
            </Array>
          </mxGeometry>
        </mxCell>
        <mxCell id="5RVm7mu3YjyD82HHT5HA-22" value="&lt;font style=&quot;font-size: 6px;&quot;&gt;&amp;lt;&amp;lt;include&amp;gt;&amp;gt;&lt;/font&gt;" style="edgeLabel;html=1;align=center;verticalAlign=middle;resizable=0;points=[];" parent="5RVm7mu3YjyD82HHT5HA-21" vertex="1" connectable="0">
          <mxGeometry x="0.0391" y="1" relative="1" as="geometry">
            <mxPoint x="-38" y="-33" as="offset" />
          </mxGeometry>
        </mxCell>
        <mxCell id="WguPAyDiYu1wL8_UfqvR-3" value="" style="rounded=0;whiteSpace=wrap;html=1;" parent="1" vertex="1">
          <mxGeometry x="1270" y="290" width="1020" height="560" as="geometry" />
        </mxCell>
        <mxCell id="iBkpamwlGwWvaB-03Q2d-1" value="&lt;span style=&quot;font-size: 10px;&quot;&gt;hủy hợp đồng&lt;/span&gt;" style="ellipse;whiteSpace=wrap;html=1;fillColor=none;labelBackgroundColor=none;" parent="1" vertex="1">
          <mxGeometry x="3550" y="450" width="100" height="30" as="geometry" />
        </mxCell>
        <mxCell id="WguPAyDiYu1wL8_UfqvR-4" value="Admin" style="shape=umlActor;verticalLabelPosition=bottom;verticalAlign=top;html=1;outlineConnect=0;" parent="1" vertex="1">
          <mxGeometry x="1775" y="200" width="30" height="60" as="geometry" />
        </mxCell>
        <mxCell id="iBkpamwlGwWvaB-03Q2d-2" value="&lt;span style=&quot;font-size: 10px;&quot;&gt;xác nhận hợp đồng&lt;/span&gt;" style="ellipse;whiteSpace=wrap;html=1;" parent="1" vertex="1">
          <mxGeometry x="3670" y="450" width="100" height="30" as="geometry" />
        </mxCell>
        <mxCell id="WguPAyDiYu1wL8_UfqvR-5" value="Nhân viên&lt;br&gt;Quản lý nhân sự&lt;br&gt;" style="shape=umlActor;verticalLabelPosition=bottom;verticalAlign=top;html=1;outlineConnect=0;" parent="1" vertex="1">
          <mxGeometry x="1150" y="480" width="30" height="60" as="geometry" />
        </mxCell>
        <mxCell id="iBkpamwlGwWvaB-03Q2d-3" value="" style="endArrow=open;dashed=1;html=1;rounded=0;endFill=0;entryX=0.238;entryY=0.915;entryDx=0;entryDy=0;entryPerimeter=0;" parent="1" source="iBkpamwlGwWvaB-03Q2d-1" target="79gRq2DrtrsoFmL8w3pO-97" edge="1">
          <mxGeometry width="50" height="50" relative="1" as="geometry">
            <mxPoint x="3697" y="413" as="sourcePoint" />
            <mxPoint x="3644" y="388" as="targetPoint" />
          </mxGeometry>
        </mxCell>
        <mxCell id="iBkpamwlGwWvaB-03Q2d-4" value="&lt;font style=&quot;font-size: 8px;&quot;&gt;&amp;lt;&amp;lt;extend&amp;gt;&amp;gt;&lt;/font&gt;" style="edgeLabel;html=1;align=center;verticalAlign=middle;resizable=0;points=[];" parent="iBkpamwlGwWvaB-03Q2d-3" connectable="0" vertex="1">
          <mxGeometry x="0.0391" y="1" relative="1" as="geometry">
            <mxPoint x="-4" y="2" as="offset" />
          </mxGeometry>
        </mxCell>
        <mxCell id="WguPAyDiYu1wL8_UfqvR-6" value="Nhân viên kế toán" style="shape=umlActor;verticalLabelPosition=bottom;verticalAlign=top;html=1;outlineConnect=0;" parent="1" vertex="1">
          <mxGeometry x="1150" y="730" width="30" height="60" as="geometry" />
        </mxCell>
        <mxCell id="iBkpamwlGwWvaB-03Q2d-6" value="" style="endArrow=open;dashed=1;html=1;rounded=0;endFill=0;entryX=0.556;entryY=0.949;entryDx=0;entryDy=0;entryPerimeter=0;" parent="1" source="iBkpamwlGwWvaB-03Q2d-2" target="79gRq2DrtrsoFmL8w3pO-97" edge="1">
          <mxGeometry width="50" height="50" relative="1" as="geometry">
            <mxPoint x="3625" y="462" as="sourcePoint" />
            <mxPoint x="3674" y="437" as="targetPoint" />
          </mxGeometry>
        </mxCell>
        <mxCell id="iBkpamwlGwWvaB-03Q2d-7" value="&lt;font style=&quot;font-size: 8px;&quot;&gt;&amp;lt;&amp;lt;extend&amp;gt;&amp;gt;&lt;/font&gt;" style="edgeLabel;html=1;align=center;verticalAlign=middle;resizable=0;points=[];" parent="iBkpamwlGwWvaB-03Q2d-6" connectable="0" vertex="1">
          <mxGeometry x="0.0391" y="1" relative="1" as="geometry">
            <mxPoint x="7" y="-1" as="offset" />
          </mxGeometry>
        </mxCell>
        <mxCell id="WguPAyDiYu1wL8_UfqvR-7" value="Nhân viên chấm công" style="shape=umlActor;verticalLabelPosition=bottom;verticalAlign=top;html=1;outlineConnect=0;" parent="1" vertex="1">
          <mxGeometry x="1775" y="865" width="30" height="60" as="geometry" />
        </mxCell>
        <mxCell id="WguPAyDiYu1wL8_UfqvR-8" value="Nhân viên&lt;br&gt;Quản lý hợp đồng&lt;br&gt;" style="shape=umlActor;verticalLabelPosition=bottom;verticalAlign=top;html=1;outlineConnect=0;" parent="1" vertex="1">
          <mxGeometry x="2410" y="375" width="30" height="60" as="geometry" />
        </mxCell>
        <mxCell id="WguPAyDiYu1wL8_UfqvR-9" value="Nhân viên Quản lý quy trình&amp;nbsp;&lt;br&gt;sản xuất sản phẩm&lt;br&gt;" style="shape=umlActor;verticalLabelPosition=bottom;verticalAlign=top;html=1;outlineConnect=0;" parent="1" vertex="1">
          <mxGeometry x="2410" y="675" width="30" height="60" as="geometry" />
        </mxCell>
        <mxCell id="WguPAyDiYu1wL8_UfqvR-10" value="Quản lý tài khoản" style="ellipse;whiteSpace=wrap;html=1;fillColor=#ffe6cc;strokeColor=#d79b00;" parent="1" vertex="1">
          <mxGeometry x="1710" y="385" width="160" height="40" as="geometry" />
        </mxCell>
        <mxCell id="WguPAyDiYu1wL8_UfqvR-11" value="Đánh giá nhân viên" style="ellipse;whiteSpace=wrap;html=1;fillColor=#f5f5f5;fontColor=#333333;strokeColor=#666666;" parent="1" vertex="1">
          <mxGeometry x="1375" y="540" width="160" height="40" as="geometry" />
        </mxCell>
        <mxCell id="WguPAyDiYu1wL8_UfqvR-12" value="Quản lý lương nhân&lt;br&gt;viên" style="ellipse;whiteSpace=wrap;html=1;fillColor=#f5f5f5;fontColor=#333333;strokeColor=#666666;" parent="1" vertex="1">
          <mxGeometry x="1375" y="735" width="160" height="40" as="geometry" />
        </mxCell>
        <mxCell id="WguPAyDiYu1wL8_UfqvR-13" value="Chấm công nhân viên" style="ellipse;whiteSpace=wrap;html=1;fillColor=#ffe6cc;strokeColor=#d79b00;" parent="1" vertex="1">
          <mxGeometry x="1710" y="680" width="160" height="40" as="geometry" />
        </mxCell>
        <mxCell id="WguPAyDiYu1wL8_UfqvR-14" value="Quản lý sản phẩm" style="ellipse;whiteSpace=wrap;html=1;fillColor=#f5f5f5;fontColor=#333333;strokeColor=#666666;" parent="1" vertex="1">
          <mxGeometry x="2060" y="580" width="160" height="40" as="geometry" />
        </mxCell>
        <mxCell id="WguPAyDiYu1wL8_UfqvR-15" value="Quản lý hợp đồng" style="ellipse;whiteSpace=wrap;html=1;fillColor=#f5f5f5;fontColor=#333333;strokeColor=#666666;" parent="1" vertex="1">
          <mxGeometry x="2060" y="385" width="160" height="40" as="geometry" />
        </mxCell>
        <mxCell id="WguPAyDiYu1wL8_UfqvR-16" value="" style="endArrow=open;html=1;rounded=0;endFill=0;entryX=-0.011;entryY=0.535;entryDx=0;entryDy=0;entryPerimeter=0;" parent="1" source="WguPAyDiYu1wL8_UfqvR-5" target="WguPAyDiYu1wL8_UfqvR-115" edge="1">
          <mxGeometry width="50" height="50" relative="1" as="geometry">
            <mxPoint x="1260" y="390" as="sourcePoint" />
            <mxPoint x="1470" y="360" as="targetPoint" />
            <Array as="points" />
          </mxGeometry>
        </mxCell>
        <mxCell id="WguPAyDiYu1wL8_UfqvR-17" value="" style="endArrow=open;html=1;rounded=0;endFill=0;entryX=-0.015;entryY=0.518;entryDx=0;entryDy=0;entryPerimeter=0;" parent="1" source="WguPAyDiYu1wL8_UfqvR-5" target="WguPAyDiYu1wL8_UfqvR-11" edge="1">
          <mxGeometry width="50" height="50" relative="1" as="geometry">
            <mxPoint x="1255" y="400" as="sourcePoint" />
            <mxPoint x="1470" y="530" as="targetPoint" />
            <Array as="points" />
          </mxGeometry>
        </mxCell>
        <mxCell id="WguPAyDiYu1wL8_UfqvR-18" value="" style="endArrow=open;html=1;rounded=0;endFill=0;entryX=0.501;entryY=0.02;entryDx=0;entryDy=0;entryPerimeter=0;" parent="1" source="WguPAyDiYu1wL8_UfqvR-4" target="WguPAyDiYu1wL8_UfqvR-10" edge="1">
          <mxGeometry width="50" height="50" relative="1" as="geometry">
            <mxPoint x="1630" y="250" as="sourcePoint" />
            <mxPoint x="1790" y="371" as="targetPoint" />
            <Array as="points" />
          </mxGeometry>
        </mxCell>
        <mxCell id="WguPAyDiYu1wL8_UfqvR-19" value="Đăng nhập" style="ellipse;whiteSpace=wrap;html=1;fillColor=#f5f5f5;fontColor=#333333;strokeColor=#666666;" parent="1" vertex="1">
          <mxGeometry x="1710" y="530" width="160" height="40" as="geometry" />
        </mxCell>
        <mxCell id="WguPAyDiYu1wL8_UfqvR-20" value="" style="endArrow=open;html=1;rounded=0;endFill=0;entryX=-0.015;entryY=0.594;entryDx=0;entryDy=0;entryPerimeter=0;" parent="1" source="WguPAyDiYu1wL8_UfqvR-6" target="WguPAyDiYu1wL8_UfqvR-12" edge="1">
          <mxGeometry width="50" height="50" relative="1" as="geometry">
            <mxPoint x="1255" y="740" as="sourcePoint" />
            <mxPoint x="1480" y="820" as="targetPoint" />
            <Array as="points" />
          </mxGeometry>
        </mxCell>
        <mxCell id="WguPAyDiYu1wL8_UfqvR-21" value="" style="endArrow=open;html=1;rounded=0;endFill=0;entryX=0.506;entryY=1.059;entryDx=0;entryDy=0;entryPerimeter=0;" parent="1" source="WguPAyDiYu1wL8_UfqvR-7" target="WguPAyDiYu1wL8_UfqvR-13" edge="1">
          <mxGeometry width="50" height="50" relative="1" as="geometry">
            <mxPoint x="1570" y="735" as="sourcePoint" />
            <mxPoint x="1795" y="815" as="targetPoint" />
          </mxGeometry>
        </mxCell>
        <mxCell id="WguPAyDiYu1wL8_UfqvR-22" value="" style="endArrow=open;html=1;rounded=0;endFill=0;entryX=0.998;entryY=0.653;entryDx=0;entryDy=0;entryPerimeter=0;" parent="1" source="WguPAyDiYu1wL8_UfqvR-9" target="WguPAyDiYu1wL8_UfqvR-14" edge="1">
          <mxGeometry width="50" height="50" relative="1" as="geometry">
            <mxPoint x="1880" y="900" as="sourcePoint" />
            <mxPoint x="1801" y="822" as="targetPoint" />
          </mxGeometry>
        </mxCell>
        <mxCell id="WguPAyDiYu1wL8_UfqvR-23" value="" style="endArrow=open;html=1;rounded=0;endFill=0;entryX=1;entryY=0.487;entryDx=0;entryDy=0;entryPerimeter=0;" parent="1" source="WguPAyDiYu1wL8_UfqvR-8" target="WguPAyDiYu1wL8_UfqvR-15" edge="1">
          <mxGeometry width="50" height="50" relative="1" as="geometry">
            <mxPoint x="2160" y="750" as="sourcePoint" />
            <mxPoint x="2003" y="694" as="targetPoint" />
          </mxGeometry>
        </mxCell>
        <mxCell id="WguPAyDiYu1wL8_UfqvR-24" value="" style="endArrow=open;dashed=1;html=1;rounded=0;endFill=0;entryX=0.07;entryY=0.805;entryDx=0;entryDy=0;entryPerimeter=0;exitX=0.999;exitY=0.539;exitDx=0;exitDy=0;exitPerimeter=0;" parent="1" source="WguPAyDiYu1wL8_UfqvR-12" edge="1">
          <mxGeometry width="50" height="50" relative="1" as="geometry">
            <mxPoint x="1550" y="720" as="sourcePoint" />
            <mxPoint x="1710.0000000000005" y="569.9999999999998" as="targetPoint" />
            <Array as="points" />
          </mxGeometry>
        </mxCell>
        <mxCell id="WguPAyDiYu1wL8_UfqvR-25" value="&lt;font style=&quot;font-size: 6px;&quot;&gt;&amp;lt;&amp;lt;include&amp;gt;&amp;gt;&lt;/font&gt;" style="edgeLabel;html=1;align=center;verticalAlign=middle;resizable=0;points=[];" parent="WguPAyDiYu1wL8_UfqvR-24" vertex="1" connectable="0">
          <mxGeometry x="0.0391" y="1" relative="1" as="geometry">
            <mxPoint x="45" y="-49" as="offset" />
          </mxGeometry>
        </mxCell>
        <mxCell id="WguPAyDiYu1wL8_UfqvR-26" value="" style="endArrow=open;dashed=1;html=1;rounded=0;endFill=0;" parent="1" source="WguPAyDiYu1wL8_UfqvR-13" target="WguPAyDiYu1wL8_UfqvR-19" edge="1">
          <mxGeometry width="50" height="50" relative="1" as="geometry">
            <mxPoint x="1790" y="770" as="sourcePoint" />
            <mxPoint x="1720.0000000000005" y="579.9999999999998" as="targetPoint" />
            <Array as="points" />
          </mxGeometry>
        </mxCell>
        <mxCell id="WguPAyDiYu1wL8_UfqvR-27" value="&lt;font style=&quot;font-size: 6px;&quot;&gt;&amp;lt;&amp;lt;include&amp;gt;&amp;gt;&lt;/font&gt;" style="edgeLabel;html=1;align=center;verticalAlign=middle;resizable=0;points=[];" parent="WguPAyDiYu1wL8_UfqvR-26" vertex="1" connectable="0">
          <mxGeometry x="0.0391" y="1" relative="1" as="geometry">
            <mxPoint x="1" y="-13" as="offset" />
          </mxGeometry>
        </mxCell>
        <mxCell id="WguPAyDiYu1wL8_UfqvR-28" value="" style="endArrow=open;dashed=1;html=1;rounded=0;endFill=0;exitX=-0.002;exitY=0.489;exitDx=0;exitDy=0;exitPerimeter=0;entryX=0.861;entryY=0.9;entryDx=0;entryDy=0;entryPerimeter=0;" parent="1" source="WguPAyDiYu1wL8_UfqvR-14" target="WguPAyDiYu1wL8_UfqvR-19" edge="1">
          <mxGeometry width="50" height="50" relative="1" as="geometry">
            <mxPoint x="1800" y="780" as="sourcePoint" />
            <mxPoint x="1860" y="560" as="targetPoint" />
            <Array as="points" />
          </mxGeometry>
        </mxCell>
        <mxCell id="WguPAyDiYu1wL8_UfqvR-29" value="&lt;font style=&quot;font-size: 6px;&quot;&gt;&amp;lt;&amp;lt;include&amp;gt;&amp;gt;&lt;/font&gt;" style="edgeLabel;html=1;align=center;verticalAlign=middle;resizable=0;points=[];" parent="WguPAyDiYu1wL8_UfqvR-28" vertex="1" connectable="0">
          <mxGeometry x="0.0391" y="1" relative="1" as="geometry">
            <mxPoint x="-29" y="-3" as="offset" />
          </mxGeometry>
        </mxCell>
        <mxCell id="WguPAyDiYu1wL8_UfqvR-30" value="" style="endArrow=open;dashed=1;html=1;rounded=0;endFill=0;exitX=0.509;exitY=1.01;exitDx=0;exitDy=0;exitPerimeter=0;entryX=0.512;entryY=0.001;entryDx=0;entryDy=0;entryPerimeter=0;" parent="1" source="WguPAyDiYu1wL8_UfqvR-10" target="WguPAyDiYu1wL8_UfqvR-19" edge="1">
          <mxGeometry width="50" height="50" relative="1" as="geometry">
            <mxPoint x="1760" y="480" as="sourcePoint" />
            <mxPoint x="1789" y="540" as="targetPoint" />
            <Array as="points" />
          </mxGeometry>
        </mxCell>
        <mxCell id="WguPAyDiYu1wL8_UfqvR-31" value="&lt;font style=&quot;font-size: 6px;&quot;&gt;&amp;lt;&amp;lt;include&amp;gt;&amp;gt;&lt;/font&gt;" style="edgeLabel;html=1;align=center;verticalAlign=middle;resizable=0;points=[];" parent="WguPAyDiYu1wL8_UfqvR-30" vertex="1" connectable="0">
          <mxGeometry x="0.0391" y="1" relative="1" as="geometry">
            <mxPoint x="-3" y="25" as="offset" />
          </mxGeometry>
        </mxCell>
        <mxCell id="WguPAyDiYu1wL8_UfqvR-32" value="" style="endArrow=open;dashed=1;html=1;rounded=0;endFill=0;entryX=0.932;entryY=0.263;entryDx=0;entryDy=0;entryPerimeter=0;exitX=0.02;exitY=0.687;exitDx=0;exitDy=0;exitPerimeter=0;" parent="1" source="WguPAyDiYu1wL8_UfqvR-15" target="WguPAyDiYu1wL8_UfqvR-19" edge="1">
          <mxGeometry width="50" height="50" relative="1" as="geometry">
            <mxPoint x="1998" y="655" as="sourcePoint" />
            <mxPoint x="1871" y="570" as="targetPoint" />
          </mxGeometry>
        </mxCell>
        <mxCell id="WguPAyDiYu1wL8_UfqvR-33" value="&lt;font style=&quot;font-size: 6px;&quot;&gt;&amp;lt;&amp;lt;include&amp;gt;&amp;gt;&lt;/font&gt;" style="edgeLabel;html=1;align=center;verticalAlign=middle;resizable=0;points=[];" parent="WguPAyDiYu1wL8_UfqvR-32" vertex="1" connectable="0">
          <mxGeometry x="0.0391" y="1" relative="1" as="geometry">
            <mxPoint x="-37" y="25" as="offset" />
          </mxGeometry>
        </mxCell>
        <mxCell id="WguPAyDiYu1wL8_UfqvR-34" value="" style="endArrow=open;dashed=1;html=1;rounded=0;endFill=0;" parent="1" source="WguPAyDiYu1wL8_UfqvR-11" target="WguPAyDiYu1wL8_UfqvR-19" edge="1">
          <mxGeometry width="50" height="50" relative="1" as="geometry">
            <mxPoint x="1559.7599999999998" y="678.56" as="sourcePoint" />
            <mxPoint x="1670" y="560" as="targetPoint" />
            <Array as="points" />
          </mxGeometry>
        </mxCell>
        <mxCell id="WguPAyDiYu1wL8_UfqvR-35" value="&lt;font style=&quot;font-size: 6px;&quot;&gt;&amp;lt;&amp;lt;include&amp;gt;&amp;gt;&lt;/font&gt;" style="edgeLabel;html=1;align=center;verticalAlign=middle;resizable=0;points=[];" parent="WguPAyDiYu1wL8_UfqvR-34" vertex="1" connectable="0">
          <mxGeometry x="0.0391" y="1" relative="1" as="geometry">
            <mxPoint x="24" y="-4" as="offset" />
          </mxGeometry>
        </mxCell>
        <mxCell id="WguPAyDiYu1wL8_UfqvR-36" value="" style="endArrow=open;dashed=1;html=1;rounded=0;endFill=0;entryX=0.062;entryY=0.247;entryDx=0;entryDy=0;entryPerimeter=0;exitX=0.988;exitY=0.555;exitDx=0;exitDy=0;exitPerimeter=0;" parent="1" source="WguPAyDiYu1wL8_UfqvR-115" target="WguPAyDiYu1wL8_UfqvR-19" edge="1">
          <mxGeometry width="50" height="50" relative="1" as="geometry">
            <mxPoint x="1550" y="390" as="sourcePoint" />
            <mxPoint x="1710" y="569" as="targetPoint" />
            <Array as="points" />
          </mxGeometry>
        </mxCell>
        <mxCell id="WguPAyDiYu1wL8_UfqvR-37" value="&lt;font style=&quot;font-size: 6px;&quot;&gt;&amp;lt;&amp;lt;include&amp;gt;&amp;gt;&lt;/font&gt;" style="edgeLabel;html=1;align=center;verticalAlign=middle;resizable=0;points=[];" parent="WguPAyDiYu1wL8_UfqvR-36" vertex="1" connectable="0">
          <mxGeometry x="0.0391" y="1" relative="1" as="geometry">
            <mxPoint x="25" y="18" as="offset" />
          </mxGeometry>
        </mxCell>
        <mxCell id="WguPAyDiYu1wL8_UfqvR-38" value="&lt;font style=&quot;font-size: 10px;&quot;&gt;Thêm nhân viên&lt;/font&gt;" style="ellipse;whiteSpace=wrap;html=1;" parent="1" vertex="1">
          <mxGeometry x="1300" y="340" width="100" height="30" as="geometry" />
        </mxCell>
        <mxCell id="WguPAyDiYu1wL8_UfqvR-39" value="&lt;span style=&quot;font-size: 10px;&quot;&gt;Xử lý thôi việc&lt;/span&gt;" style="ellipse;whiteSpace=wrap;html=1;" parent="1" vertex="1">
          <mxGeometry x="1460" y="470" width="100" height="30" as="geometry" />
        </mxCell>
        <mxCell id="WguPAyDiYu1wL8_UfqvR-40" value="&lt;span style=&quot;font-size: 10px;&quot;&gt;Chỉnh sửa nhân viên&lt;/span&gt;" style="ellipse;whiteSpace=wrap;html=1;" parent="1" vertex="1">
          <mxGeometry x="1340" y="470" width="100" height="30" as="geometry" />
        </mxCell>
        <mxCell id="WguPAyDiYu1wL8_UfqvR-41" value="" style="endArrow=open;dashed=1;html=1;rounded=0;endFill=0;" parent="1" source="WguPAyDiYu1wL8_UfqvR-115" edge="1">
          <mxGeometry width="50" height="50" relative="1" as="geometry">
            <mxPoint x="1480" y="440" as="sourcePoint" />
            <mxPoint x="1440" y="430" as="targetPoint" />
          </mxGeometry>
        </mxCell>
        <mxCell id="WguPAyDiYu1wL8_UfqvR-42" value="&lt;font style=&quot;font-size: 6px;&quot;&gt;&amp;lt;&amp;lt;extend&amp;gt;&amp;gt;&lt;/font&gt;" style="edgeLabel;html=1;align=center;verticalAlign=middle;resizable=0;points=[];" parent="WguPAyDiYu1wL8_UfqvR-41" vertex="1" connectable="0">
          <mxGeometry x="0.0391" y="1" relative="1" as="geometry">
            <mxPoint x="16" y="11" as="offset" />
          </mxGeometry>
        </mxCell>
        <mxCell id="WguPAyDiYu1wL8_UfqvR-43" value="" style="endArrow=open;dashed=1;html=1;rounded=0;endFill=0;exitX=0.435;exitY=0.007;exitDx=0;exitDy=0;exitPerimeter=0;entryX=0.488;entryY=1.035;entryDx=0;entryDy=0;entryPerimeter=0;" parent="1" source="WguPAyDiYu1wL8_UfqvR-39" target="WguPAyDiYu1wL8_UfqvR-115" edge="1">
          <mxGeometry width="50" height="50" relative="1" as="geometry">
            <mxPoint x="1538" y="461" as="sourcePoint" />
            <mxPoint x="1440" y="430" as="targetPoint" />
          </mxGeometry>
        </mxCell>
        <mxCell id="WguPAyDiYu1wL8_UfqvR-44" value="&lt;font style=&quot;font-size: 6px;&quot;&gt;&amp;lt;&amp;lt;extend&amp;gt;&amp;gt;&lt;/font&gt;" style="edgeLabel;html=1;align=center;verticalAlign=middle;resizable=0;points=[];" parent="WguPAyDiYu1wL8_UfqvR-43" vertex="1" connectable="0">
          <mxGeometry x="0.0391" y="1" relative="1" as="geometry">
            <mxPoint x="11" y="-1" as="offset" />
          </mxGeometry>
        </mxCell>
        <mxCell id="WguPAyDiYu1wL8_UfqvR-45" value="" style="endArrow=open;dashed=1;html=1;rounded=0;endFill=0;entryX=0.482;entryY=-0.019;entryDx=0;entryDy=0;entryPerimeter=0;exitX=0.458;exitY=1.01;exitDx=0;exitDy=0;exitPerimeter=0;" parent="1" source="WguPAyDiYu1wL8_UfqvR-38" target="WguPAyDiYu1wL8_UfqvR-115" edge="1">
          <mxGeometry width="50" height="50" relative="1" as="geometry">
            <mxPoint x="1453" y="460" as="sourcePoint" />
            <mxPoint x="1471" y="421" as="targetPoint" />
          </mxGeometry>
        </mxCell>
        <mxCell id="WguPAyDiYu1wL8_UfqvR-46" value="&lt;font style=&quot;font-size: 6px;&quot;&gt;&amp;lt;&amp;lt;extend&amp;gt;&amp;gt;&lt;/font&gt;" style="edgeLabel;html=1;align=center;verticalAlign=middle;resizable=0;points=[];rotation=0;" parent="WguPAyDiYu1wL8_UfqvR-45" vertex="1" connectable="0">
          <mxGeometry x="0.0391" y="1" relative="1" as="geometry">
            <mxPoint x="-14" y="-5" as="offset" />
          </mxGeometry>
        </mxCell>
        <mxCell id="WguPAyDiYu1wL8_UfqvR-47" value="&lt;font style=&quot;font-size: 10px;&quot;&gt;Tìm kiếm nhân viên&lt;/font&gt;" style="ellipse;whiteSpace=wrap;html=1;" parent="1" vertex="1">
          <mxGeometry x="1405" y="340" width="100" height="30" as="geometry" />
        </mxCell>
        <mxCell id="WguPAyDiYu1wL8_UfqvR-48" value="" style="endArrow=open;dashed=1;html=1;rounded=0;endFill=0;entryX=0.466;entryY=-0.05;entryDx=0;entryDy=0;entryPerimeter=0;exitX=0.52;exitY=1.041;exitDx=0;exitDy=0;exitPerimeter=0;" parent="1" source="WguPAyDiYu1wL8_UfqvR-47" target="WguPAyDiYu1wL8_UfqvR-115" edge="1">
          <mxGeometry width="50" height="50" relative="1" as="geometry">
            <mxPoint x="1409" y="443" as="sourcePoint" />
            <mxPoint x="1425" y="414" as="targetPoint" />
          </mxGeometry>
        </mxCell>
        <mxCell id="WguPAyDiYu1wL8_UfqvR-49" value="&lt;font style=&quot;font-size: 6px;&quot;&gt;&amp;lt;&amp;lt;extend&amp;gt;&amp;gt;&lt;/font&gt;" style="edgeLabel;html=1;align=center;verticalAlign=middle;resizable=0;points=[];rotation=0;" parent="WguPAyDiYu1wL8_UfqvR-48" vertex="1" connectable="0">
          <mxGeometry x="0.0391" y="1" relative="1" as="geometry">
            <mxPoint x="3" y="-6" as="offset" />
          </mxGeometry>
        </mxCell>
        <mxCell id="WguPAyDiYu1wL8_UfqvR-50" value="&lt;span style=&quot;font-size: 10px;&quot;&gt;Xem thông tin nhân viên&lt;/span&gt;" style="ellipse;whiteSpace=wrap;html=1;" parent="1" vertex="1">
          <mxGeometry x="1510" y="340" width="110" height="35" as="geometry" />
        </mxCell>
        <mxCell id="WguPAyDiYu1wL8_UfqvR-51" value="" style="endArrow=open;dashed=1;html=1;rounded=0;endFill=0;exitX=0.512;exitY=0.989;exitDx=0;exitDy=0;exitPerimeter=0;entryX=0.47;entryY=-0.042;entryDx=0;entryDy=0;entryPerimeter=0;" parent="1" source="WguPAyDiYu1wL8_UfqvR-50" target="WguPAyDiYu1wL8_UfqvR-115" edge="1">
          <mxGeometry width="50" height="50" relative="1" as="geometry">
            <mxPoint x="1386" y="351" as="sourcePoint" />
            <mxPoint x="1470" y="370" as="targetPoint" />
          </mxGeometry>
        </mxCell>
        <mxCell id="WguPAyDiYu1wL8_UfqvR-52" value="&lt;font style=&quot;font-size: 6px;&quot;&gt;&amp;lt;&amp;lt;extend&amp;gt;&amp;gt;&lt;/font&gt;" style="edgeLabel;html=1;align=center;verticalAlign=middle;resizable=0;points=[];rotation=0;" parent="WguPAyDiYu1wL8_UfqvR-51" vertex="1" connectable="0">
          <mxGeometry x="0.0391" y="1" relative="1" as="geometry">
            <mxPoint x="11" y="-8" as="offset" />
          </mxGeometry>
        </mxCell>
        <mxCell id="WguPAyDiYu1wL8_UfqvR-53" value="&lt;span style=&quot;font-size: 10px;&quot;&gt;Tạo tài khoản&lt;/span&gt;" style="ellipse;whiteSpace=wrap;html=1;fillColor=#ffe6cc;strokeColor=#d79b00;" parent="1" vertex="1">
          <mxGeometry x="1658" y="340" width="100" height="30" as="geometry" />
        </mxCell>
        <mxCell id="WguPAyDiYu1wL8_UfqvR-54" value="" style="endArrow=open;dashed=1;html=1;rounded=0;endFill=0;entryX=0.446;entryY=-0.008;entryDx=0;entryDy=0;entryPerimeter=0;exitX=0.454;exitY=1.08;exitDx=0;exitDy=0;exitPerimeter=0;" parent="1" source="WguPAyDiYu1wL8_UfqvR-53" target="WguPAyDiYu1wL8_UfqvR-10" edge="1">
          <mxGeometry width="50" height="50" relative="1" as="geometry">
            <mxPoint x="1915" y="240" as="sourcePoint" />
            <mxPoint x="1858" y="248" as="targetPoint" />
          </mxGeometry>
        </mxCell>
        <mxCell id="WguPAyDiYu1wL8_UfqvR-55" value="&lt;font style=&quot;font-size: 8px;&quot;&gt;&amp;lt;&amp;lt;extend&amp;gt;&amp;gt;&lt;/font&gt;" style="edgeLabel;html=1;align=center;verticalAlign=middle;resizable=0;points=[];" parent="WguPAyDiYu1wL8_UfqvR-54" vertex="1" connectable="0">
          <mxGeometry x="0.0391" y="1" relative="1" as="geometry">
            <mxPoint x="10" y="-2" as="offset" />
          </mxGeometry>
        </mxCell>
        <mxCell id="WguPAyDiYu1wL8_UfqvR-56" value="&lt;span style=&quot;font-size: 10px;&quot;&gt;Chỉnh sửa tài khoản&lt;/span&gt;" style="ellipse;whiteSpace=wrap;html=1;fillColor=#ffe6cc;strokeColor=#d79b00;" parent="1" vertex="1">
          <mxGeometry x="1830" y="340" width="100" height="30" as="geometry" />
        </mxCell>
        <mxCell id="WguPAyDiYu1wL8_UfqvR-57" value="" style="endArrow=open;dashed=1;html=1;rounded=0;endFill=0;exitX=0.496;exitY=1.04;exitDx=0;exitDy=0;exitPerimeter=0;entryX=0.561;entryY=0.022;entryDx=0;entryDy=0;entryPerimeter=0;" parent="1" source="WguPAyDiYu1wL8_UfqvR-56" target="WguPAyDiYu1wL8_UfqvR-10" edge="1">
          <mxGeometry width="50" height="50" relative="1" as="geometry">
            <mxPoint x="1694.9300000000003" y="350" as="sourcePoint" />
            <mxPoint x="1850" y="390" as="targetPoint" />
          </mxGeometry>
        </mxCell>
        <mxCell id="WguPAyDiYu1wL8_UfqvR-58" value="&lt;font style=&quot;font-size: 8px;&quot;&gt;&amp;lt;&amp;lt;extend&amp;gt;&amp;gt;&lt;/font&gt;" style="edgeLabel;html=1;align=center;verticalAlign=middle;resizable=0;points=[];" parent="WguPAyDiYu1wL8_UfqvR-57" vertex="1" connectable="0">
          <mxGeometry x="0.0391" y="1" relative="1" as="geometry">
            <mxPoint x="-8" y="-5" as="offset" />
          </mxGeometry>
        </mxCell>
        <mxCell id="WguPAyDiYu1wL8_UfqvR-59" value="&lt;span style=&quot;font-size: 10px;&quot;&gt;Xóa tài khoản&lt;/span&gt;" style="ellipse;whiteSpace=wrap;html=1;fillColor=#ffe6cc;strokeColor=#d79b00;" parent="1" vertex="1">
          <mxGeometry x="1830" y="435" width="100" height="30" as="geometry" />
        </mxCell>
        <mxCell id="WguPAyDiYu1wL8_UfqvR-60" value="" style="endArrow=open;dashed=1;html=1;rounded=0;endFill=0;entryX=0.555;entryY=1.058;entryDx=0;entryDy=0;entryPerimeter=0;exitX=0.468;exitY=0.019;exitDx=0;exitDy=0;exitPerimeter=0;" parent="1" source="WguPAyDiYu1wL8_UfqvR-59" target="WguPAyDiYu1wL8_UfqvR-10" edge="1">
          <mxGeometry width="50" height="50" relative="1" as="geometry">
            <mxPoint x="1975" y="270" as="sourcePoint" />
            <mxPoint x="1875" y="410" as="targetPoint" />
            <Array as="points" />
          </mxGeometry>
        </mxCell>
        <mxCell id="WguPAyDiYu1wL8_UfqvR-61" value="&lt;font style=&quot;font-size: 8px;&quot;&gt;&amp;lt;&amp;lt;extend&amp;gt;&amp;gt;&lt;/font&gt;" style="edgeLabel;html=1;align=center;verticalAlign=middle;resizable=0;points=[];" parent="WguPAyDiYu1wL8_UfqvR-60" vertex="1" connectable="0">
          <mxGeometry x="0.0391" y="1" relative="1" as="geometry">
            <mxPoint x="10" y="-2" as="offset" />
          </mxGeometry>
        </mxCell>
        <mxCell id="WguPAyDiYu1wL8_UfqvR-62" value="&lt;span style=&quot;font-size: 10px;&quot;&gt;Xử lý quên tài khoản&lt;/span&gt;" style="ellipse;whiteSpace=wrap;html=1;fillColor=#ffe6cc;strokeColor=#d79b00;" parent="1" vertex="1">
          <mxGeometry x="1640" y="435" width="100" height="30" as="geometry" />
        </mxCell>
        <mxCell id="WguPAyDiYu1wL8_UfqvR-63" value="" style="endArrow=open;dashed=1;html=1;rounded=0;endFill=0;exitX=0.545;exitY=-0.061;exitDx=0;exitDy=0;exitPerimeter=0;entryX=0.458;entryY=1.007;entryDx=0;entryDy=0;entryPerimeter=0;" parent="1" source="WguPAyDiYu1wL8_UfqvR-62" target="WguPAyDiYu1wL8_UfqvR-10" edge="1">
          <mxGeometry width="50" height="50" relative="1" as="geometry">
            <mxPoint x="1660" y="391" as="sourcePoint" />
            <mxPoint x="1711" y="406" as="targetPoint" />
          </mxGeometry>
        </mxCell>
        <mxCell id="WguPAyDiYu1wL8_UfqvR-64" value="&lt;font style=&quot;font-size: 8px;&quot;&gt;&amp;lt;&amp;lt;extend&amp;gt;&amp;gt;&lt;/font&gt;" style="edgeLabel;html=1;align=center;verticalAlign=middle;resizable=0;points=[];" parent="WguPAyDiYu1wL8_UfqvR-63" vertex="1" connectable="0">
          <mxGeometry x="0.0391" y="1" relative="1" as="geometry">
            <mxPoint x="-1" y="2" as="offset" />
          </mxGeometry>
        </mxCell>
        <mxCell id="WguPAyDiYu1wL8_UfqvR-65" value="Chia công đoạn" style="ellipse;whiteSpace=wrap;html=1;fillColor=#00FF00;fontColor=#333333;strokeColor=#666666;" parent="1" vertex="1">
          <mxGeometry x="2050" y="700" width="160" height="40" as="geometry" />
        </mxCell>
        <mxCell id="WguPAyDiYu1wL8_UfqvR-66" value="" style="endArrow=open;html=1;rounded=0;endFill=0;entryX=0.999;entryY=0.522;entryDx=0;entryDy=0;entryPerimeter=0;" parent="1" source="WguPAyDiYu1wL8_UfqvR-9" target="WguPAyDiYu1wL8_UfqvR-65" edge="1">
          <mxGeometry width="50" height="50" relative="1" as="geometry">
            <mxPoint x="2172" y="720" as="sourcePoint" />
            <mxPoint x="2103" y="589" as="targetPoint" />
            <Array as="points" />
          </mxGeometry>
        </mxCell>
        <mxCell id="WguPAyDiYu1wL8_UfqvR-67" value="" style="endArrow=open;dashed=1;html=1;rounded=0;endFill=0;exitX=0.483;exitY=0.026;exitDx=0;exitDy=0;exitPerimeter=0;entryX=0.506;entryY=1.012;entryDx=0;entryDy=0;entryPerimeter=0;" parent="1" source="WguPAyDiYu1wL8_UfqvR-118" target="WguPAyDiYu1wL8_UfqvR-13" edge="1">
          <mxGeometry width="50" height="50" relative="1" as="geometry">
            <mxPoint x="1630" y="681" as="sourcePoint" />
            <mxPoint x="1747" y="726" as="targetPoint" />
          </mxGeometry>
        </mxCell>
        <mxCell id="WguPAyDiYu1wL8_UfqvR-68" value="&lt;font style=&quot;font-size: 8px;&quot;&gt;&amp;lt;&amp;lt;extend&amp;gt;&amp;gt;&lt;/font&gt;" style="edgeLabel;html=1;align=center;verticalAlign=middle;resizable=0;points=[];" parent="WguPAyDiYu1wL8_UfqvR-67" vertex="1" connectable="0">
          <mxGeometry x="0.0391" y="1" relative="1" as="geometry">
            <mxPoint x="2" y="-4" as="offset" />
          </mxGeometry>
        </mxCell>
        <mxCell id="WguPAyDiYu1wL8_UfqvR-69" value="&lt;span style=&quot;font-size: 10px;&quot;&gt;Chấm công công nhân&lt;/span&gt;" style="ellipse;whiteSpace=wrap;html=1;fillColor=#ffe6cc;strokeColor=#d79b00;" parent="1" vertex="1">
          <mxGeometry x="1810" y="750" width="120" height="30" as="geometry" />
        </mxCell>
        <mxCell id="WguPAyDiYu1wL8_UfqvR-70" value="" style="endArrow=open;dashed=1;html=1;rounded=0;endFill=0;exitX=0.482;exitY=-0.013;exitDx=0;exitDy=0;exitPerimeter=0;entryX=0.491;entryY=1.016;entryDx=0;entryDy=0;entryPerimeter=0;" parent="1" source="WguPAyDiYu1wL8_UfqvR-69" target="WguPAyDiYu1wL8_UfqvR-13" edge="1">
          <mxGeometry width="50" height="50" relative="1" as="geometry">
            <mxPoint x="1780" y="675" as="sourcePoint" />
            <mxPoint x="1790" y="720" as="targetPoint" />
          </mxGeometry>
        </mxCell>
        <mxCell id="WguPAyDiYu1wL8_UfqvR-71" value="&lt;font style=&quot;font-size: 8px;&quot;&gt;&amp;lt;&amp;lt;extend&amp;gt;&amp;gt;&lt;/font&gt;" style="edgeLabel;html=1;align=center;verticalAlign=middle;resizable=0;points=[];" parent="WguPAyDiYu1wL8_UfqvR-70" vertex="1" connectable="0">
          <mxGeometry x="0.0391" y="1" relative="1" as="geometry">
            <mxPoint x="4" y="-6" as="offset" />
          </mxGeometry>
        </mxCell>
        <mxCell id="WguPAyDiYu1wL8_UfqvR-72" value="&lt;span style=&quot;font-size: 10px;&quot;&gt;Tính lương nhân viên&lt;/span&gt;" style="ellipse;whiteSpace=wrap;html=1;fillColor=#33FF33;" parent="1" vertex="1">
          <mxGeometry x="1320" y="675" width="100" height="30" as="geometry" />
        </mxCell>
        <mxCell id="WguPAyDiYu1wL8_UfqvR-73" value="" style="endArrow=open;dashed=1;html=1;rounded=0;endFill=0;entryX=0.447;entryY=-0.034;entryDx=0;entryDy=0;entryPerimeter=0;exitX=0.499;exitY=1.082;exitDx=0;exitDy=0;exitPerimeter=0;" parent="1" source="WguPAyDiYu1wL8_UfqvR-72" target="WguPAyDiYu1wL8_UfqvR-12" edge="1">
          <mxGeometry width="50" height="50" relative="1" as="geometry">
            <mxPoint x="1488" y="605.5" as="sourcePoint" />
            <mxPoint x="1411" y="555.5" as="targetPoint" />
          </mxGeometry>
        </mxCell>
        <mxCell id="WguPAyDiYu1wL8_UfqvR-74" value="&lt;font style=&quot;font-size: 6px;&quot;&gt;&amp;lt;&amp;lt;extend&amp;gt;&amp;gt;&lt;/font&gt;" style="edgeLabel;html=1;align=center;verticalAlign=middle;resizable=0;points=[];" parent="WguPAyDiYu1wL8_UfqvR-73" vertex="1" connectable="0">
          <mxGeometry x="0.0391" y="1" relative="1" as="geometry">
            <mxPoint x="-5" y="-5" as="offset" />
          </mxGeometry>
        </mxCell>
        <mxCell id="WguPAyDiYu1wL8_UfqvR-75" value="&lt;span style=&quot;font-size: 10px;&quot;&gt;Cập nhật lương&lt;/span&gt;" style="ellipse;whiteSpace=wrap;html=1;" parent="1" vertex="1">
          <mxGeometry x="1470" y="685" width="100" height="30" as="geometry" />
        </mxCell>
        <mxCell id="WguPAyDiYu1wL8_UfqvR-76" value="" style="endArrow=open;dashed=1;html=1;rounded=0;endFill=0;exitX=0.491;exitY=1.068;exitDx=0;exitDy=0;exitPerimeter=0;entryX=0.494;entryY=0.03;entryDx=0;entryDy=0;entryPerimeter=0;" parent="1" source="WguPAyDiYu1wL8_UfqvR-75" target="WguPAyDiYu1wL8_UfqvR-12" edge="1">
          <mxGeometry width="50" height="50" relative="1" as="geometry">
            <mxPoint x="1350" y="700" as="sourcePoint" />
            <mxPoint x="1450" y="740" as="targetPoint" />
          </mxGeometry>
        </mxCell>
        <mxCell id="WguPAyDiYu1wL8_UfqvR-77" value="&lt;font style=&quot;font-size: 6px;&quot;&gt;&amp;lt;&amp;lt;extend&amp;gt;&amp;gt;&lt;/font&gt;" style="edgeLabel;html=1;align=center;verticalAlign=middle;resizable=0;points=[];" parent="WguPAyDiYu1wL8_UfqvR-76" vertex="1" connectable="0">
          <mxGeometry x="0.0391" y="1" relative="1" as="geometry">
            <mxPoint x="4" y="-8" as="offset" />
          </mxGeometry>
        </mxCell>
        <mxCell id="WguPAyDiYu1wL8_UfqvR-78" value="&lt;span style=&quot;font-size: 10px;&quot;&gt;Thống kê lương&lt;/span&gt;" style="ellipse;whiteSpace=wrap;html=1;fillColor=#33FF33;" parent="1" vertex="1">
          <mxGeometry x="1405" y="800" width="100" height="30" as="geometry" />
        </mxCell>
        <mxCell id="WguPAyDiYu1wL8_UfqvR-79" value="" style="endArrow=open;dashed=1;html=1;rounded=0;endFill=0;entryX=0.485;entryY=1.03;entryDx=0;entryDy=0;entryPerimeter=0;" parent="1" source="WguPAyDiYu1wL8_UfqvR-78" target="WguPAyDiYu1wL8_UfqvR-12" edge="1">
          <mxGeometry width="50" height="50" relative="1" as="geometry">
            <mxPoint x="1435" y="679.5" as="sourcePoint" />
            <mxPoint x="1464" y="756" as="targetPoint" />
          </mxGeometry>
        </mxCell>
        <mxCell id="WguPAyDiYu1wL8_UfqvR-80" value="&lt;font style=&quot;font-size: 6px;&quot;&gt;&amp;lt;&amp;lt;extend&amp;gt;&amp;gt;&lt;/font&gt;" style="edgeLabel;html=1;align=center;verticalAlign=middle;resizable=0;points=[];" parent="WguPAyDiYu1wL8_UfqvR-79" vertex="1" connectable="0">
          <mxGeometry x="0.0391" y="1" relative="1" as="geometry">
            <mxPoint x="3" y="2" as="offset" />
          </mxGeometry>
        </mxCell>
        <mxCell id="WguPAyDiYu1wL8_UfqvR-81" value="&lt;span style=&quot;font-size: 10px;&quot;&gt;Tạo hợp đồng&lt;/span&gt;" style="ellipse;whiteSpace=wrap;html=1;" parent="1" vertex="1">
          <mxGeometry x="2020" y="335" width="100" height="30" as="geometry" />
        </mxCell>
        <mxCell id="WguPAyDiYu1wL8_UfqvR-82" value="" style="endArrow=open;dashed=1;html=1;rounded=0;endFill=0;entryX=0.42;entryY=0.029;entryDx=0;entryDy=0;entryPerimeter=0;exitX=0.563;exitY=1.067;exitDx=0;exitDy=0;exitPerimeter=0;" parent="1" source="WguPAyDiYu1wL8_UfqvR-81" target="WguPAyDiYu1wL8_UfqvR-15" edge="1">
          <mxGeometry width="50" height="50" relative="1" as="geometry">
            <mxPoint x="2040" y="400" as="sourcePoint" />
            <mxPoint x="1925" y="528" as="targetPoint" />
          </mxGeometry>
        </mxCell>
        <mxCell id="WguPAyDiYu1wL8_UfqvR-83" value="&lt;font style=&quot;font-size: 8px;&quot;&gt;&amp;lt;&amp;lt;extend&amp;gt;&amp;gt;&lt;/font&gt;" style="edgeLabel;html=1;align=center;verticalAlign=middle;resizable=0;points=[];" parent="WguPAyDiYu1wL8_UfqvR-82" vertex="1" connectable="0">
          <mxGeometry x="0.0391" y="1" relative="1" as="geometry">
            <mxPoint x="-3" as="offset" />
          </mxGeometry>
        </mxCell>
        <mxCell id="WguPAyDiYu1wL8_UfqvR-84" value="&lt;span style=&quot;font-size: 10px;&quot;&gt;Sửa hợp đồng&lt;/span&gt;" style="ellipse;whiteSpace=wrap;html=1;" parent="1" vertex="1">
          <mxGeometry x="2020" y="450" width="100" height="30" as="geometry" />
        </mxCell>
        <mxCell id="WguPAyDiYu1wL8_UfqvR-85" value="" style="endArrow=open;dashed=1;html=1;rounded=0;endFill=0;entryX=0.465;entryY=1.035;entryDx=0;entryDy=0;entryPerimeter=0;exitX=0.496;exitY=0.044;exitDx=0;exitDy=0;exitPerimeter=0;" parent="1" source="WguPAyDiYu1wL8_UfqvR-84" target="WguPAyDiYu1wL8_UfqvR-15" edge="1">
          <mxGeometry width="50" height="50" relative="1" as="geometry">
            <mxPoint x="1939" y="492" as="sourcePoint" />
            <mxPoint x="1967" y="460" as="targetPoint" />
          </mxGeometry>
        </mxCell>
        <mxCell id="WguPAyDiYu1wL8_UfqvR-86" value="&lt;font style=&quot;font-size: 8px;&quot;&gt;&amp;lt;&amp;lt;extend&amp;gt;&amp;gt;&lt;/font&gt;" style="edgeLabel;html=1;align=center;verticalAlign=middle;resizable=0;points=[];" parent="WguPAyDiYu1wL8_UfqvR-85" vertex="1" connectable="0">
          <mxGeometry x="0.0391" y="1" relative="1" as="geometry">
            <mxPoint x="-3" as="offset" />
          </mxGeometry>
        </mxCell>
        <mxCell id="WguPAyDiYu1wL8_UfqvR-87" value="&lt;span style=&quot;font-size: 10px;&quot;&gt;Cập nhật trạng thái&lt;/span&gt;" style="ellipse;whiteSpace=wrap;html=1;" parent="1" vertex="1">
          <mxGeometry x="2150" y="450" width="100" height="30" as="geometry" />
        </mxCell>
        <mxCell id="WguPAyDiYu1wL8_UfqvR-88" value="" style="endArrow=open;dashed=1;html=1;rounded=0;endFill=0;exitX=0.474;exitY=0.095;exitDx=0;exitDy=0;exitPerimeter=0;entryX=0.523;entryY=1.071;entryDx=0;entryDy=0;entryPerimeter=0;" parent="1" source="WguPAyDiYu1wL8_UfqvR-87" target="WguPAyDiYu1wL8_UfqvR-15" edge="1">
          <mxGeometry width="50" height="50" relative="1" as="geometry">
            <mxPoint x="1965" y="362" as="sourcePoint" />
            <mxPoint x="2040" y="410" as="targetPoint" />
          </mxGeometry>
        </mxCell>
        <mxCell id="WguPAyDiYu1wL8_UfqvR-89" value="&lt;font style=&quot;font-size: 8px;&quot;&gt;&amp;lt;&amp;lt;extend&amp;gt;&amp;gt;&lt;/font&gt;" style="edgeLabel;html=1;align=center;verticalAlign=middle;resizable=0;points=[];" parent="WguPAyDiYu1wL8_UfqvR-88" vertex="1" connectable="0">
          <mxGeometry x="0.0391" y="1" relative="1" as="geometry">
            <mxPoint x="7" y="-1" as="offset" />
          </mxGeometry>
        </mxCell>
        <mxCell id="WguPAyDiYu1wL8_UfqvR-93" value="&lt;span style=&quot;font-size: 10px;&quot;&gt;Xem sản phẩm&lt;/span&gt;" style="ellipse;whiteSpace=wrap;html=1;" parent="1" vertex="1">
          <mxGeometry x="2000" y="535" width="100" height="30" as="geometry" />
        </mxCell>
        <mxCell id="WguPAyDiYu1wL8_UfqvR-94" value="" style="endArrow=open;dashed=1;html=1;rounded=0;endFill=0;exitX=0.854;exitY=0.885;exitDx=0;exitDy=0;exitPerimeter=0;entryX=0.447;entryY=0.035;entryDx=0;entryDy=0;entryPerimeter=0;" parent="1" source="WguPAyDiYu1wL8_UfqvR-93" target="WguPAyDiYu1wL8_UfqvR-14" edge="1">
          <mxGeometry width="50" height="50" relative="1" as="geometry">
            <mxPoint x="2089" y="512" as="sourcePoint" />
            <mxPoint x="2061" y="458" as="targetPoint" />
          </mxGeometry>
        </mxCell>
        <mxCell id="WguPAyDiYu1wL8_UfqvR-95" value="&lt;font style=&quot;font-size: 8px;&quot;&gt;&amp;lt;&amp;lt;extend&amp;gt;&amp;gt;&lt;/font&gt;" style="edgeLabel;html=1;align=center;verticalAlign=middle;resizable=0;points=[];" parent="WguPAyDiYu1wL8_UfqvR-94" vertex="1" connectable="0">
          <mxGeometry x="0.0391" y="1" relative="1" as="geometry">
            <mxPoint x="-10" y="-1" as="offset" />
          </mxGeometry>
        </mxCell>
        <mxCell id="WguPAyDiYu1wL8_UfqvR-96" value="&lt;span style=&quot;font-size: 10px;&quot;&gt;Sửa thông tin sản phẩm&lt;br&gt;&lt;/span&gt;" style="ellipse;whiteSpace=wrap;html=1;" parent="1" vertex="1">
          <mxGeometry x="2140" y="535" width="110" height="30" as="geometry" />
        </mxCell>
        <mxCell id="WguPAyDiYu1wL8_UfqvR-97" value="" style="endArrow=open;dashed=1;html=1;rounded=0;endFill=0;exitX=0.502;exitY=1.038;exitDx=0;exitDy=0;exitPerimeter=0;entryX=0.48;entryY=-0.005;entryDx=0;entryDy=0;entryPerimeter=0;" parent="1" source="WguPAyDiYu1wL8_UfqvR-96" target="WguPAyDiYu1wL8_UfqvR-14" edge="1">
          <mxGeometry width="50" height="50" relative="1" as="geometry">
            <mxPoint x="2189" y="492" as="sourcePoint" />
            <mxPoint x="2068" y="592" as="targetPoint" />
          </mxGeometry>
        </mxCell>
        <mxCell id="WguPAyDiYu1wL8_UfqvR-98" value="&lt;font style=&quot;font-size: 8px;&quot;&gt;&amp;lt;&amp;lt;extend&amp;gt;&amp;gt;&lt;/font&gt;" style="edgeLabel;html=1;align=center;verticalAlign=middle;resizable=0;points=[];" parent="WguPAyDiYu1wL8_UfqvR-97" vertex="1" connectable="0">
          <mxGeometry x="0.0391" y="1" relative="1" as="geometry">
            <mxPoint x="5" y="-7" as="offset" />
          </mxGeometry>
        </mxCell>
        <mxCell id="WguPAyDiYu1wL8_UfqvR-99" value="&lt;span style=&quot;font-size: 10px;&quot;&gt;Thêm công đoạn&lt;/span&gt;" style="ellipse;whiteSpace=wrap;html=1;fillColor=#33FF33;" parent="1" vertex="1">
          <mxGeometry x="1970" y="655" width="100" height="30" as="geometry" />
        </mxCell>
        <mxCell id="WguPAyDiYu1wL8_UfqvR-100" value="" style="endArrow=open;dashed=1;html=1;rounded=0;endFill=0;exitX=0.502;exitY=1.04;exitDx=0;exitDy=0;exitPerimeter=0;entryX=0.474;entryY=-0.035;entryDx=0;entryDy=0;entryPerimeter=0;" parent="1" source="WguPAyDiYu1wL8_UfqvR-99" target="WguPAyDiYu1wL8_UfqvR-65" edge="1">
          <mxGeometry width="50" height="50" relative="1" as="geometry">
            <mxPoint x="1975" y="597" as="sourcePoint" />
            <mxPoint x="1978" y="622" as="targetPoint" />
          </mxGeometry>
        </mxCell>
        <mxCell id="WguPAyDiYu1wL8_UfqvR-101" value="&lt;font style=&quot;font-size: 8px;&quot;&gt;&amp;lt;&amp;lt;extend&amp;gt;&amp;gt;&lt;/font&gt;" style="edgeLabel;html=1;align=center;verticalAlign=middle;resizable=0;points=[];" parent="WguPAyDiYu1wL8_UfqvR-100" vertex="1" connectable="0">
          <mxGeometry x="0.0391" y="1" relative="1" as="geometry">
            <mxPoint x="-3" as="offset" />
          </mxGeometry>
        </mxCell>
        <mxCell id="WguPAyDiYu1wL8_UfqvR-102" value="&lt;span style=&quot;font-size: 10px;&quot;&gt;Xóa công đoạn&lt;/span&gt;" style="ellipse;whiteSpace=wrap;html=1;fillColor=#00FF00;" parent="1" vertex="1">
          <mxGeometry x="2010" y="775" width="100" height="30" as="geometry" />
        </mxCell>
        <mxCell id="WguPAyDiYu1wL8_UfqvR-103" value="" style="endArrow=open;dashed=1;html=1;rounded=0;endFill=0;exitX=0.526;exitY=0.053;exitDx=0;exitDy=0;exitPerimeter=0;entryX=0.451;entryY=0.995;entryDx=0;entryDy=0;entryPerimeter=0;" parent="1" source="WguPAyDiYu1wL8_UfqvR-102" target="WguPAyDiYu1wL8_UfqvR-65" edge="1">
          <mxGeometry width="50" height="50" relative="1" as="geometry">
            <mxPoint x="2075" y="582" as="sourcePoint" />
            <mxPoint x="2034" y="704" as="targetPoint" />
          </mxGeometry>
        </mxCell>
        <mxCell id="WguPAyDiYu1wL8_UfqvR-104" value="&lt;font style=&quot;font-size: 8px;&quot;&gt;&amp;lt;&amp;lt;extend&amp;gt;&amp;gt;&lt;/font&gt;" style="edgeLabel;html=1;align=center;verticalAlign=middle;resizable=0;points=[];" parent="WguPAyDiYu1wL8_UfqvR-103" vertex="1" connectable="0">
          <mxGeometry x="0.0391" y="1" relative="1" as="geometry">
            <mxPoint x="-3" as="offset" />
          </mxGeometry>
        </mxCell>
        <mxCell id="WguPAyDiYu1wL8_UfqvR-105" value="&lt;span style=&quot;font-size: 10px;&quot;&gt;Sửa công đoạn&lt;/span&gt;" style="ellipse;whiteSpace=wrap;html=1;fillColor=#33FF33;" parent="1" vertex="1">
          <mxGeometry x="2190" y="655" width="100" height="30" as="geometry" />
        </mxCell>
        <mxCell id="WguPAyDiYu1wL8_UfqvR-106" value="" style="endArrow=open;dashed=1;html=1;rounded=0;endFill=0;" parent="1" edge="1">
          <mxGeometry width="50" height="50" relative="1" as="geometry">
            <mxPoint x="2236" y="687" as="sourcePoint" />
            <mxPoint x="2140" y="700" as="targetPoint" />
          </mxGeometry>
        </mxCell>
        <mxCell id="WguPAyDiYu1wL8_UfqvR-107" value="&lt;font style=&quot;font-size: 8px;&quot;&gt;&amp;lt;&amp;lt;extend&amp;gt;&amp;gt;&lt;/font&gt;" style="edgeLabel;html=1;align=center;verticalAlign=middle;resizable=0;points=[];" parent="WguPAyDiYu1wL8_UfqvR-106" vertex="1" connectable="0">
          <mxGeometry x="0.0391" y="1" relative="1" as="geometry">
            <mxPoint x="-3" as="offset" />
          </mxGeometry>
        </mxCell>
        <mxCell id="WguPAyDiYu1wL8_UfqvR-108" value="&lt;span style=&quot;font-size: 10px;&quot;&gt;Phân chia công đoạn cho công nhân&lt;/span&gt;" style="ellipse;whiteSpace=wrap;html=1;fillColor=#33FF33;" parent="1" vertex="1">
          <mxGeometry x="2130" y="770" width="130" height="50" as="geometry" />
        </mxCell>
        <mxCell id="WguPAyDiYu1wL8_UfqvR-109" value="" style="endArrow=open;dashed=1;html=1;rounded=0;endFill=0;exitX=0.554;exitY=0.013;exitDx=0;exitDy=0;exitPerimeter=0;entryX=0.556;entryY=1.005;entryDx=0;entryDy=0;entryPerimeter=0;" parent="1" source="WguPAyDiYu1wL8_UfqvR-108" target="WguPAyDiYu1wL8_UfqvR-65" edge="1">
          <mxGeometry width="50" height="50" relative="1" as="geometry">
            <mxPoint x="1953.96" y="705.6" as="sourcePoint" />
            <mxPoint x="1940" y="770" as="targetPoint" />
          </mxGeometry>
        </mxCell>
        <mxCell id="WguPAyDiYu1wL8_UfqvR-110" value="&lt;font style=&quot;font-size: 8px;&quot;&gt;&amp;lt;&amp;lt;extend&amp;gt;&amp;gt;&lt;/font&gt;" style="edgeLabel;html=1;align=center;verticalAlign=middle;resizable=0;points=[];" parent="WguPAyDiYu1wL8_UfqvR-109" vertex="1" connectable="0">
          <mxGeometry x="0.0391" y="1" relative="1" as="geometry">
            <mxPoint x="-3" as="offset" />
          </mxGeometry>
        </mxCell>
        <mxCell id="WguPAyDiYu1wL8_UfqvR-111" value="&lt;span style=&quot;font-size: 10px;&quot;&gt;Xem công đoạn&lt;/span&gt;" style="ellipse;whiteSpace=wrap;html=1;" parent="1" vertex="1">
          <mxGeometry x="2080" y="640.0000000000001" width="100" height="30" as="geometry" />
        </mxCell>
        <mxCell id="WguPAyDiYu1wL8_UfqvR-112" value="" style="endArrow=open;dashed=1;html=1;rounded=0;endFill=0;entryX=0.491;entryY=0.015;entryDx=0;entryDy=0;entryPerimeter=0;" parent="1" source="WguPAyDiYu1wL8_UfqvR-111" target="WguPAyDiYu1wL8_UfqvR-65" edge="1">
          <mxGeometry width="50" height="50" relative="1" as="geometry">
            <mxPoint x="2060.98" y="715.8000000000001" as="sourcePoint" />
            <mxPoint x="2034.02" y="761.2" as="targetPoint" />
          </mxGeometry>
        </mxCell>
        <mxCell id="WguPAyDiYu1wL8_UfqvR-113" value="&lt;font style=&quot;font-size: 8px;&quot;&gt;&amp;lt;&amp;lt;extend&amp;gt;&amp;gt;&lt;/font&gt;" style="edgeLabel;html=1;align=center;verticalAlign=middle;resizable=0;points=[];" parent="WguPAyDiYu1wL8_UfqvR-112" vertex="1" connectable="0">
          <mxGeometry x="0.0391" y="1" relative="1" as="geometry">
            <mxPoint x="-3" as="offset" />
          </mxGeometry>
        </mxCell>
        <mxCell id="WguPAyDiYu1wL8_UfqvR-114" value="" style="endArrow=open;dashed=1;html=1;rounded=0;endFill=0;" parent="1" target="WguPAyDiYu1wL8_UfqvR-115" edge="1">
          <mxGeometry width="50" height="50" relative="1" as="geometry">
            <mxPoint x="1480" y="440" as="sourcePoint" />
            <mxPoint x="1440" y="430" as="targetPoint" />
          </mxGeometry>
        </mxCell>
        <mxCell id="WguPAyDiYu1wL8_UfqvR-115" value="Quản lý nhân viên&amp;nbsp;" style="ellipse;whiteSpace=wrap;html=1;fillColor=#f5f5f5;fontColor=#333333;strokeColor=#666666;" parent="1" vertex="1">
          <mxGeometry x="1380" y="410" width="160" height="40" as="geometry" />
        </mxCell>
        <mxCell id="WguPAyDiYu1wL8_UfqvR-116" value="" style="endArrow=open;dashed=1;html=1;rounded=0;endFill=0;entryX=0.48;entryY=1.019;entryDx=0;entryDy=0;entryPerimeter=0;exitX=0.512;exitY=-0.044;exitDx=0;exitDy=0;exitPerimeter=0;" parent="1" source="WguPAyDiYu1wL8_UfqvR-40" target="WguPAyDiYu1wL8_UfqvR-115" edge="1">
          <mxGeometry width="50" height="50" relative="1" as="geometry">
            <mxPoint x="1326" y="370" as="sourcePoint" />
            <mxPoint x="1467" y="419" as="targetPoint" />
          </mxGeometry>
        </mxCell>
        <mxCell id="WguPAyDiYu1wL8_UfqvR-117" value="&lt;font style=&quot;font-size: 6px;&quot;&gt;&amp;lt;&amp;lt;extend&amp;gt;&amp;gt;&lt;/font&gt;" style="edgeLabel;html=1;align=center;verticalAlign=middle;resizable=0;points=[];rotation=0;" parent="WguPAyDiYu1wL8_UfqvR-116" vertex="1" connectable="0">
          <mxGeometry x="0.0391" y="1" relative="1" as="geometry">
            <mxPoint x="-5" y="2" as="offset" />
          </mxGeometry>
        </mxCell>
        <mxCell id="WguPAyDiYu1wL8_UfqvR-118" value="&lt;span style=&quot;font-size: 10px;&quot;&gt;Chấm công nhân viên hành chính&lt;br&gt;&lt;/span&gt;" style="ellipse;whiteSpace=wrap;html=1;fillColor=#ffe6cc;strokeColor=#d79b00;" parent="1" vertex="1">
          <mxGeometry x="1608" y="750" width="167" height="30" as="geometry" />
        </mxCell>
        <mxCell id="WguPAyDiYu1wL8_UfqvR-119" value="" style="endArrow=open;dashed=1;html=1;rounded=0;endFill=0;entryX=0.807;entryY=0.904;entryDx=0;entryDy=0;entryPerimeter=0;exitX=-0.012;exitY=0.569;exitDx=0;exitDy=0;exitPerimeter=0;" parent="1" source="WguPAyDiYu1wL8_UfqvR-65" target="WguPAyDiYu1wL8_UfqvR-19" edge="1">
          <mxGeometry width="50" height="50" relative="1" as="geometry">
            <mxPoint x="2070" y="610" as="sourcePoint" />
            <mxPoint x="1858" y="576" as="targetPoint" />
            <Array as="points">
              <mxPoint x="1950" y="680" />
            </Array>
          </mxGeometry>
        </mxCell>
        <mxCell id="WguPAyDiYu1wL8_UfqvR-120" value="&lt;font style=&quot;font-size: 6px;&quot;&gt;&amp;lt;&amp;lt;include&amp;gt;&amp;gt;&lt;/font&gt;" style="edgeLabel;html=1;align=center;verticalAlign=middle;resizable=0;points=[];" parent="WguPAyDiYu1wL8_UfqvR-119" vertex="1" connectable="0">
          <mxGeometry x="0.0391" y="1" relative="1" as="geometry">
            <mxPoint x="-38" y="-33" as="offset" />
          </mxGeometry>
        </mxCell>
      </root>
    </mxGraphModel>
  </diagram>
</mxfile>
